<?xml version="1.0" encoding="utf-8"?>
<svg viewBox="94.5637 225.1798 180 53.3333" width="180" height="53.3333"
  xmlns="http://www.w3.org/2000/svg">
  <defs>
    <clipPath clipPathUnits="userSpaceOnUse" id="clipPath26">
      <path
        d="m 205.098,176.105 -0.743,0.711 c -2.91,3.079 -4.628,7.86 -4.628,14.051 v -1.457 0 221.16 c 0,0.02 0,0.035 0,0.051 0,-0.019 0,-0.035 0,-0.055 v -1.461 c 0,6.704 2.003,11.754 5.359,14.782 L 328.984,299.992 205.098,176.105 m -5.371,234.528 c 0,0.551 0.015,1.086 0.043,1.613 -0.028,-0.523 -0.043,-1.062 -0.043,-1.613 m 0.043,1.637 c 0,0.007 0,0.015 0.003,0.023 -0.003,-0.008 -0.003,-0.016 -0.003,-0.023 m 0.003,0.07 c 0,0.004 0,0.008 0,0.012 0,-0.004 0,-0.008 0,-0.012"
        id="path24" />
    </clipPath>
    <linearGradient x1="0" y1="0" x2="1" y2="0" gradientUnits="userSpaceOnUse"
      gradientTransform="matrix(-167.825,-167.825,167.825,-167.825,317.998,412.903)"
      spreadMethod="pad" id="linearGradient40">
      <stop style="stop-opacity:1;stop-color:#00a0ff" offset="0" id="stop28" />
      <stop style="stop-opacity:1;stop-color:#00a1ff" offset="0.0066" id="stop30" />
      <stop style="stop-opacity:1;stop-color:#00beff" offset="0.2601" id="stop32" />
      <stop style="stop-opacity:1;stop-color:#00d2ff" offset="0.5122" id="stop34" />
      <stop style="stop-opacity:1;stop-color:#00dfff" offset="0.7604" id="stop36" />
      <stop style="stop-opacity:1;stop-color:#00e3ff" offset="1" id="stop38" />
    </linearGradient>
    <clipPath clipPathUnits="userSpaceOnUse" id="clipPath50">
      <path
        d="m 370.277,257.215 v 0 l 0.942,0.535 48.929,27.801 c 4.665,2.652 7.774,5.867 9.325,9.269 -1.547,-3.402 -4.657,-6.621 -9.325,-9.273 l -48.929,-27.801 -0.942,-0.531 m 0.012,1.465 -41.305,41.312 41.301,41.305 49.863,-28.328 c 6.332,-3.598 9.887,-8.235 10.481,-12.973 0,-0.004 0,-0.012 0,-0.019 -0.594,-4.727 -4.149,-9.368 -10.481,-12.965 L 370.289,258.68"
        id="path48" />
    </clipPath>
    <linearGradient x1="0" y1="0" x2="1" y2="0" gradientUnits="userSpaceOnUse"
      gradientTransform="matrix(-241.97,0,0,-241.97,438.344,299.986)" spreadMethod="pad"
      id="linearGradient60">
      <stop style="stop-opacity:1;stop-color:#ffe000" offset="0" id="stop52" />
      <stop style="stop-opacity:1;stop-color:#ffbd00" offset="0.4087" id="stop54" />
      <stop style="stop-opacity:1;stop-color:#ffa500" offset="0.7754" id="stop56" />
      <stop style="stop-opacity:1;stop-color:#ff9c00" offset="1" id="stop58" />
    </linearGradient>
    <clipPath clipPathUnits="userSpaceOnUse" id="clipPath70">
      <path
        d="m 213.93,171.387 c -3.461,0 -6.481,1.125 -8.836,3.25 l 0.004,0.004 c 2.355,-2.125 5.379,-3.254 8.84,-3.254 0.3,0 0.605,0.008 0.914,0.023 -0.313,-0.015 -0.622,-0.023 -0.922,-0.023 m 0.004,1.465 c -3.461,-0.004 -6.481,1.125 -8.836,3.25 v 0 0.003 l 123.886,123.887 41.305,-41.312 v 0 L 225.137,176.207 c -4.016,-2.277 -7.821,-3.355 -11.203,-3.355 m -8.871,1.812 c -0.219,0.199 -0.434,0.41 -0.645,0.629 l 0.645,-0.629"
        id="path68" />
    </clipPath>
    <linearGradient x1="0" y1="0" x2="1" y2="0" gradientUnits="userSpaceOnUse"
      gradientTransform="matrix(-227.583,-227.583,227.583,-227.583,348.27,277.039)"
      spreadMethod="pad" id="linearGradient76">
      <stop style="stop-opacity:1;stop-color:#ff3a44" offset="0" id="stop72" />
      <stop style="stop-opacity:1;stop-color:#c31162" offset="1" id="stop74" />
    </linearGradient>
    <clipPath clipPathUnits="userSpaceOnUse" id="clipPath86">
      <path
        d="m 328.984,299.992 v 0 L 205.086,423.887 c 2.355,2.121 5.371,3.246 8.828,3.246 3.391,0 7.199,-1.082 11.223,-3.363 l 145.148,-82.473 -41.301,-41.305 m 42.235,42.238 -146.082,83 c -4.024,2.282 -7.832,3.364 -11.223,3.364 -0.016,0 -0.027,0 -0.043,0 0.02,0 0.035,0 0.059,0 3.383,0 7.187,-1.078 11.207,-3.36 L 371.219,342.23 M 213.84,428.594 v 0 0"
        id="path84" />
    </clipPath>
    <linearGradient x1="0" y1="0" x2="1" y2="0" gradientUnits="userSpaceOnUse"
      gradientTransform="matrix(101.625,-101.625,101.625,101.625,172.973,498.238)"
      spreadMethod="pad" id="linearGradient98">
      <stop style="stop-opacity:1;stop-color:#32a071" offset="0" id="stop88" />
      <stop style="stop-opacity:1;stop-color:#2da771" offset="0.0685" id="stop90" />
      <stop style="stop-opacity:1;stop-color:#15cf74" offset="0.4762" id="stop92" />
      <stop style="stop-opacity:1;stop-color:#06e775" offset="0.8009" id="stop94" />
      <stop style="stop-opacity:1;stop-color:#00f076" offset="1" id="stop96" />
    </linearGradient>
    <clipPath clipPathUnits="userSpaceOnUse" id="clipPath110">
      <path d="m 370.277,257.215 v 0 l 0.942,0.535 -0.942,-0.535" id="path108" />
    </clipPath>
    <linearGradient x1="0" y1="0" x2="1" y2="0" gradientUnits="userSpaceOnUse"
      gradientTransform="matrix(-241.97,0,0,-241.97,438.344,299.986)" spreadMethod="pad"
      id="linearGradient120">
      <stop style="stop-opacity:1;stop-color:#ccb300" offset="0" id="stop112" />
      <stop style="stop-opacity:1;stop-color:#cc9700" offset="0.4087" id="stop114" />
      <stop style="stop-opacity:1;stop-color:#cc8400" offset="0.7754" id="stop116" />
      <stop style="stop-opacity:1;stop-color:#cc7d00" offset="1" id="stop118" />
    </linearGradient>
    <clipPath clipPathUnits="userSpaceOnUse" id="clipPath130">
      <path
        d="m 213.938,171.387 c -3.461,0 -6.485,1.129 -8.84,3.254 l -0.004,-0.004 c -0.008,0.008 -0.02,0.019 -0.031,0.027 l -0.645,0.629 c -0.02,0.02 -0.039,0.043 -0.063,0.066 l 0.743,0.743 c 2.355,-2.125 5.375,-3.254 8.836,-3.25 3.382,0 7.187,1.078 11.203,3.355 l 145.152,82.473 0.93,-0.93 -0.942,-0.535 -145.14,-82.469 c -3.66,-2.074 -7.141,-3.156 -10.285,-3.336 -0.309,-0.015 -0.614,-0.023 -0.914,-0.023"
        id="path128" />
    </clipPath>
    <linearGradient x1="0" y1="0" x2="1" y2="0" gradientUnits="userSpaceOnUse"
      gradientTransform="matrix(-227.583,-227.583,227.583,-227.583,348.27,277.039)"
      spreadMethod="pad" id="linearGradient136">
      <stop style="stop-opacity:1;stop-color:#cc2e36" offset="0" id="stop132" />
      <stop style="stop-opacity:1;stop-color:#9c0e4e" offset="1" id="stop134" />
    </linearGradient>
    <clipPath clipPathUnits="userSpaceOnUse" id="clipPath148">
      <path
        d="m 204.355,175.359 v 0 c -2.91,3.079 -4.628,7.856 -4.628,14.051 v 1.457 c 0,-6.191 1.718,-10.972 4.628,-14.051 l 0.743,-0.711 -0.743,-0.746"
        id="path146" />
    </clipPath>
    <linearGradient x1="0" y1="0" x2="1" y2="0" gradientUnits="userSpaceOnUse"
      gradientTransform="matrix(-167.825,-167.825,167.825,-167.825,317.998,412.903)"
      spreadMethod="pad" id="linearGradient162">
      <stop style="stop-opacity:1;stop-color:#008de0" offset="0" id="stop150" />
      <stop style="stop-opacity:1;stop-color:#008de0" offset="0.0066" id="stop152" />
      <stop style="stop-opacity:1;stop-color:#00a7e0" offset="0.2601" id="stop154" />
      <stop style="stop-opacity:1;stop-color:#00b8e0" offset="0.5122" id="stop156" />
      <stop style="stop-opacity:1;stop-color:#00c4e0" offset="0.7604" id="stop158" />
      <stop style="stop-opacity:1;stop-color:#00c7e0" offset="1" id="stop160" />
    </linearGradient>
    <clipPath clipPathUnits="userSpaceOnUse" id="clipPath172">
      <path d="m 204.355,175.359 v 0 0 l 0.743,0.746 v -0.003 l -0.743,-0.743" id="path170" />
    </clipPath>
    <linearGradient x1="0" y1="0" x2="1" y2="0" gradientUnits="userSpaceOnUse"
      gradientTransform="matrix(-227.583,-227.583,227.583,-227.583,348.27,277.039)"
      spreadMethod="pad" id="linearGradient178">
      <stop style="stop-opacity:1;stop-color:#e0333c" offset="0" id="stop174" />
      <stop style="stop-opacity:1;stop-color:#ab0f56" offset="1" id="stop176" />
    </linearGradient>
    <clipPath clipPathUnits="userSpaceOnUse" id="clipPath190">
      <path
        d="m 371.219,257.75 v 0 l -0.93,0.93 49.859,28.332 c 6.332,3.597 9.887,8.238 10.481,12.965 0,-1.735 -0.387,-3.469 -1.156,-5.157 -1.551,-3.402 -4.66,-6.617 -9.325,-9.269 L 371.219,257.75"
        id="path188" />
    </clipPath>
    <linearGradient x1="0" y1="0" x2="1" y2="0" gradientUnits="userSpaceOnUse"
      gradientTransform="matrix(-241.97,0,0,-241.97,438.344,299.986)" spreadMethod="pad"
      id="linearGradient200">
      <stop style="stop-opacity:1;stop-color:#e0c500" offset="0" id="stop192" />
      <stop style="stop-opacity:1;stop-color:#e0a600" offset="0.4087" id="stop194" />
      <stop style="stop-opacity:1;stop-color:#e09100" offset="0.7754" id="stop196" />
      <stop style="stop-opacity:1;stop-color:#e08900" offset="1" id="stop198" />
    </linearGradient>
    <clipPath clipPathUnits="userSpaceOnUse" id="clipPath212">
      <path
        d="m 430.629,299.996 c -0.594,4.738 -4.149,9.375 -10.481,12.973 l -49.863,28.328 0.93,0.93 h 0.004 l 48.929,-27.801 c 6.981,-3.969 10.477,-9.199 10.481,-14.43"
        id="path210" />
    </clipPath>
    <linearGradient x1="0" y1="0" x2="1" y2="0" gradientUnits="userSpaceOnUse"
      gradientTransform="matrix(-241.97,0,0,-241.97,438.344,299.986)" spreadMethod="pad"
      id="linearGradient222">
      <stop style="stop-opacity:1;stop-color:#ffe840" offset="0" id="stop214" />
      <stop style="stop-opacity:1;stop-color:#ffce40" offset="0.4087" id="stop216" />
      <stop style="stop-opacity:1;stop-color:#ffbc40" offset="0.7754" id="stop218" />
      <stop style="stop-opacity:1;stop-color:#ffb540" offset="1" id="stop220" />
    </linearGradient>
    <clipPath clipPathUnits="userSpaceOnUse" id="clipPath234">
      <path
        d="m 199.727,409.105 v 1.461 c 0,0.02 0,0.036 0,0.055 0,0.004 0,0.008 0,0.012 0,0.551 0.015,1.09 0.043,1.613 0,0.008 0,0.016 0,0.024 0,0.007 0,0.015 0.003,0.023 0,0.016 0,0.031 0,0.047 0,0.004 0,0.008 0,0.012 0.301,5.332 1.957,9.492 4.582,12.269 v 0 0 l 0.731,-0.734 c -3.356,-3.028 -5.359,-8.078 -5.359,-14.782 m 5.339,16.215 0.028,0.028 c -0.008,-0.012 -0.02,-0.02 -0.028,-0.028"
        id="path232" />
    </clipPath>
    <linearGradient x1="0" y1="0" x2="1" y2="0" gradientUnits="userSpaceOnUse"
      gradientTransform="matrix(-167.825,-167.825,167.825,-167.825,317.998,412.903)"
      spreadMethod="pad" id="linearGradient248">
      <stop style="stop-opacity:1;stop-color:#40b8ff" offset="0" id="stop236" />
      <stop style="stop-opacity:1;stop-color:#40b9ff" offset="0.0066" id="stop238" />
      <stop style="stop-opacity:1;stop-color:#40ceff" offset="0.2601" id="stop240" />
      <stop style="stop-opacity:1;stop-color:#40ddff" offset="0.5122" id="stop242" />
      <stop style="stop-opacity:1;stop-color:#40e7ff" offset="0.7604" id="stop244" />
      <stop style="stop-opacity:1;stop-color:#40eaff" offset="1" id="stop246" />
    </linearGradient>
    <clipPath clipPathUnits="userSpaceOnUse" id="clipPath260">
      <path
        d="M 370.285,341.297 225.137,423.77 c -4.024,2.281 -7.832,3.363 -11.223,3.363 -3.457,0 -6.473,-1.125 -8.828,-3.246 l -0.731,0.734 v 0 c 0.231,0.242 0.465,0.477 0.711,0.699 0.008,0.008 0.02,0.016 0.028,0.024 2.336,2.105 5.32,3.23 8.746,3.25 v 0 c 0.008,0 0.019,0 0.031,0 0.016,0 0.027,0 0.043,0 3.391,0 7.199,-1.082 11.223,-3.364 l 146.082,-83 -0.004,-0.003 -0.93,-0.93"
        id="path258" />
    </clipPath>
    <linearGradient x1="0" y1="0" x2="1" y2="0" gradientUnits="userSpaceOnUse"
      gradientTransform="matrix(101.625,-101.625,101.625,101.625,172.973,498.238)"
      spreadMethod="pad" id="linearGradient272">
      <stop style="stop-opacity:1;stop-color:#65b895" offset="0" id="stop262" />
      <stop style="stop-opacity:1;stop-color:#62bd95" offset="0.0685" id="stop264" />
      <stop style="stop-opacity:1;stop-color:#50db97" offset="0.4762" id="stop266" />
      <stop style="stop-opacity:1;stop-color:#44ed98" offset="0.8009" id="stop268" />
      <stop style="stop-opacity:1;stop-color:#40f498" offset="1" id="stop270" />
    </linearGradient>
  </defs>
  <g id="g8"
    transform="matrix(1.3333330154418945, 0, 0, -1.3333330154418945, 77.1383285522461, 294.4468078613281)">
    <g id="g10" transform="matrix(0.1,0,0,0.1,3.0690452,1.9502743)">
      <path
        d="M 1400,100 H 150 c -27.5,0 -50,22.5 -50,50 v 300 c 0,27.5 22.5,50 50,50 h 1250 c 27.5,0 50,-22.5 50,-50 V 150 c 0,-27.5 -22.5,-50 -50,-50"
        style="fill:#000000;fill-opacity:1;fill-rule:nonzero;stroke:none" id="path14" />
      <path
        d="M 1157.856 188.496 L 1176.516 188.496 L 1176.516 313.508 L 1157.856 313.508 L 1157.856 188.496 Z M 1325.926 268.476 L 1304.536 214.277 L 1303.896 214.277 L 1281.696 268.476 L 1261.596 268.476 L 1294.886 192.723 L 1275.906 150.586 L 1295.376 150.586 L 1346.676 268.476 L 1325.926 268.476 Z M 1220.106 202.695 C 1213.986 202.695 1205.466 205.75 1205.466 213.312 C 1205.466 222.961 1216.086 226.66 1225.246 226.66 C 1233.456 226.66 1237.306 224.891 1242.296 222.476 C 1240.846 210.898 1230.876 202.695 1220.106 202.695 L 1220.106 202.695 Z M 1222.356 271.211 C 1208.846 271.211 1194.856 265.258 1189.066 252.07 L 1205.626 245.156 C 1209.166 252.07 1215.756 254.324 1222.676 254.324 C 1232.326 254.324 1242.136 248.531 1242.296 238.238 L 1242.296 236.953 C 1238.916 238.883 1231.686 241.777 1222.836 241.777 C 1204.986 241.777 1186.806 231.969 1186.806 213.633 C 1186.806 196.906 1201.446 186.129 1217.846 186.129 C 1230.396 186.129 1237.306 191.758 1241.656 198.351 L 1242.296 198.351 L 1242.296 188.703 L 1260.306 188.703 L 1260.306 236.633 C 1260.306 258.824 1243.746 271.211 1222.356 271.211 L 1222.356 271.211 Z M 1107.036 253.258 L 1080.496 253.258 L 1080.496 296.109 L 1107.036 296.109 C 1120.986 296.109 1128.906 284.559 1128.906 274.684 C 1128.906 264.996 1120.986 253.258 1107.036 253.258 Z M 1106.556 313.508 L 1061.846 313.508 L 1061.846 188.496 L 1080.496 188.496 L 1080.496 235.859 L 1106.556 235.859 C 1127.236 235.859 1147.566 250.832 1147.566 274.684 C 1147.566 298.535 1127.236 313.508 1106.556 313.508 Z M 862.746 202.672 C 849.855 202.672 839.062 213.465 839.062 228.289 C 839.062 243.269 849.855 254.226 862.746 254.226 C 875.473 254.226 885.461 243.269 885.461 228.289 C 885.461 213.465 875.473 202.672 862.746 202.672 L 862.746 202.672 Z M 884.172 261.476 L 883.527 261.476 C 879.34 266.469 871.281 270.98 861.133 270.98 C 839.867 270.98 820.375 252.293 820.375 228.289 C 820.375 204.445 839.867 185.918 861.133 185.918 C 871.281 185.918 879.34 190.43 883.527 195.582 L 884.172 195.582 L 884.172 189.461 C 884.172 173.187 875.473 164.488 861.457 164.488 C 850.019 164.488 842.93 172.707 840.027 179.633 L 823.758 172.867 C 828.43 161.59 840.836 147.734 861.457 147.734 C 883.367 147.734 901.894 160.625 901.894 192.039 L 901.894 268.402 L 884.172 268.402 L 884.172 261.476 Z M 914.781 188.496 L 933.469 188.496 L 933.469 313.512 L 914.781 313.512 L 914.781 188.496 Z M 961.019 229.738 C 960.535 246.172 973.746 254.547 983.25 254.547 C 990.666 254.547 996.946 250.844 999.036 245.523 L 961.019 229.738 Z M 1019.016 243.914 C 1015.476 253.422 1004.676 270.98 982.605 270.98 C 960.695 270.98 942.492 253.742 942.492 228.449 C 942.492 204.605 960.535 185.918 984.699 185.918 C 1004.196 185.918 1015.476 197.84 1020.146 204.766 L 1005.646 214.434 C 1000.816 207.344 994.206 202.672 984.699 202.672 C 975.195 202.672 968.43 207.023 964.078 215.559 L 1020.946 239.082 L 1019.016 243.914 Z M 565.934 257.93 L 565.934 239.887 L 609.109 239.887 C 607.82 229.738 604.437 222.328 599.281 217.172 C 593 210.887 583.172 203.961 565.934 203.961 C 539.351 203.961 518.57 225.387 518.57 251.969 C 518.57 278.551 539.351 299.98 565.934 299.98 C 580.273 299.98 590.742 294.34 598.476 287.09 L 611.203 299.816 C 600.41 310.129 586.07 318.023 565.934 318.023 C 529.523 318.023 498.914 288.379 498.914 251.969 C 498.914 215.559 529.523 185.918 565.934 185.918 C 585.59 185.918 600.41 192.359 612.008 204.445 C 623.93 216.367 627.637 233.121 627.637 246.652 C 627.637 250.844 627.316 254.707 626.668 257.93 L 565.934 257.93 Z M 676.723 202.672 C 663.832 202.672 652.715 213.305 652.715 228.449 C 652.715 243.754 663.832 254.226 676.723 254.226 C 689.609 254.226 700.726 243.754 700.726 228.449 C 700.726 213.305 689.609 202.672 676.723 202.672 L 676.723 202.672 Z M 676.723 270.98 C 653.199 270.98 634.027 253.098 634.027 228.449 C 634.027 203.961 653.199 185.918 676.723 185.918 C 700.242 185.918 719.414 203.961 719.414 228.449 C 719.414 253.098 700.242 270.98 676.723 270.98 Z M 769.855 202.672 C 756.969 202.672 745.851 213.305 745.851 228.449 C 745.851 243.754 756.969 254.226 769.855 254.226 C 782.742 254.226 793.859 243.754 793.859 228.449 C 793.859 213.305 782.742 202.672 769.855 202.672 Z M 769.855 270.98 C 746.332 270.98 727.164 253.098 727.164 228.449 C 727.164 203.961 746.332 185.918 769.855 185.918 C 793.375 185.918 812.547 203.961 812.547 228.449 C 812.547 253.098 793.375 270.98 769.855 270.98"
        style="fill:#ffffff;fill-opacity:1;fill-rule:nonzero;stroke:none" id="path18" />
      <g id="g20">
        <g id="g22" clip-path="url(#clipPath26)">
          <path
            d="m 205.098,176.105 -0.743,0.711 c -2.91,3.079 -4.628,7.86 -4.628,14.051 v -1.457 0 221.16 c 0,0.02 0,0.035 0,0.051 0,-0.019 0,-0.035 0,-0.055 v -1.461 c 0,6.704 2.003,11.754 5.359,14.782 L 328.984,299.992 205.098,176.105 m -5.371,234.528 c 0,0.551 0.015,1.086 0.043,1.613 -0.028,-0.523 -0.043,-1.062 -0.043,-1.613 m 0.043,1.637 c 0,0.007 0,0.015 0.003,0.023 -0.003,-0.008 -0.003,-0.016 -0.003,-0.023 m 0.003,0.07 c 0,0.004 0,0.008 0,0.012 0,-0.004 0,-0.008 0,-0.012"
            style="fill:url(#linearGradient40);fill-opacity:1;fill-rule:nonzero;stroke:none"
            id="path42" />
        </g>
      </g>
      <g id="g44">
        <g id="g46" clip-path="url(#clipPath50)">
          <path
            d="m 370.277,257.215 v 0 l 0.942,0.535 48.929,27.801 c 4.665,2.652 7.774,5.867 9.325,9.269 -1.547,-3.402 -4.657,-6.621 -9.325,-9.273 l -48.929,-27.801 -0.942,-0.531 m 0.012,1.465 -41.305,41.312 41.301,41.305 49.863,-28.328 c 6.332,-3.598 9.887,-8.235 10.481,-12.973 0,-0.004 0,-0.012 0,-0.019 -0.594,-4.727 -4.149,-9.368 -10.481,-12.965 L 370.289,258.68"
            style="fill:url(#linearGradient60);fill-opacity:1;fill-rule:nonzero;stroke:none"
            id="path62" />
        </g>
      </g>
      <g id="g64">
        <g id="g66" clip-path="url(#clipPath70)">
          <path
            d="m 213.93,171.387 c -3.461,0 -6.481,1.125 -8.836,3.25 l 0.004,0.004 c 2.355,-2.125 5.379,-3.254 8.84,-3.254 0.3,0 0.605,0.008 0.914,0.023 -0.313,-0.015 -0.622,-0.023 -0.922,-0.023 m 0.004,1.465 c -3.461,-0.004 -6.481,1.125 -8.836,3.25 v 0 0.003 l 123.886,123.887 41.305,-41.312 v 0 L 225.137,176.207 c -4.016,-2.277 -7.821,-3.355 -11.203,-3.355 m -8.871,1.812 c -0.219,0.199 -0.434,0.41 -0.645,0.629 l 0.645,-0.629"
            style="fill:url(#linearGradient76);fill-opacity:1;fill-rule:nonzero;stroke:none"
            id="path78" />
        </g>
      </g>
      <g id="g80">
        <g id="g82" clip-path="url(#clipPath86)">
          <path
            d="m 328.984,299.992 v 0 L 205.086,423.887 c 2.355,2.121 5.371,3.246 8.828,3.246 3.391,0 7.199,-1.082 11.223,-3.363 l 145.148,-82.473 -41.301,-41.305 m 42.235,42.238 -146.082,83 c -4.024,2.282 -7.832,3.364 -11.223,3.364 -0.016,0 -0.027,0 -0.043,0 0.02,0 0.035,0 0.059,0 3.383,0 7.187,-1.078 11.207,-3.36 L 371.219,342.23 M 213.84,428.594 v 0 0"
            style="fill:url(#linearGradient98);fill-opacity:1;fill-rule:nonzero;stroke:none"
            id="path100" />
        </g>
      </g>
      <path
        d="m 214.852,171.41 c 3.144,0.18 6.625,1.262 10.285,3.336 l 145.14,82.469 v 0 l -145.14,-82.469 c -3.657,-2.078 -7.141,-3.156 -10.285,-3.336 m -9.758,3.227 -0.031,0.027 c 0.011,-0.008 0.023,-0.019 0.031,-0.027 v 0 m -0.676,0.656 -0.063,0.062 v 0.004 c 0.024,-0.023 0.043,-0.046 0.063,-0.066"
        style="fill:#000000;fill-opacity:1;fill-rule:nonzero;stroke:none" id="path102" />
      <g id="g104">
        <g id="g106" clip-path="url(#clipPath110)">
          <path d="m 370.277,257.215 v 0 l 0.942,0.535 -0.942,-0.535"
            style="fill:url(#linearGradient120);fill-opacity:1;fill-rule:nonzero;stroke:none"
            id="path122" />
        </g>
      </g>
      <g id="g124">
        <g id="g126" clip-path="url(#clipPath130)">
          <path
            d="m 213.938,171.387 c -3.461,0 -6.485,1.129 -8.84,3.254 l -0.004,-0.004 c -0.008,0.008 -0.02,0.019 -0.031,0.027 l -0.645,0.629 c -0.02,0.02 -0.039,0.043 -0.063,0.066 l 0.743,0.743 c 2.355,-2.125 5.375,-3.254 8.836,-3.25 3.382,0 7.187,1.078 11.203,3.355 l 145.152,82.473 0.93,-0.93 -0.942,-0.535 -145.14,-82.469 c -3.66,-2.074 -7.141,-3.156 -10.285,-3.336 -0.309,-0.015 -0.614,-0.023 -0.914,-0.023"
            style="fill:url(#linearGradient136);fill-opacity:1;fill-rule:nonzero;stroke:none"
            id="path138" />
        </g>
      </g>
      <path
        d="m 204.355,175.355 c -2.91,3.079 -4.628,7.86 -4.628,14.051 v 0.004 c 0,-6.195 1.718,-10.972 4.628,-14.051 v 0 0 -0.004"
        style="fill:#000000;fill-opacity:1;fill-rule:nonzero;stroke:none" id="path140" />
      <g id="g142">
        <g id="g144" clip-path="url(#clipPath148)">
          <path
            d="m 204.355,175.359 v 0 c -2.91,3.079 -4.628,7.856 -4.628,14.051 v 1.457 c 0,-6.191 1.718,-10.972 4.628,-14.051 l 0.743,-0.711 -0.743,-0.746"
            style="fill:url(#linearGradient162);fill-opacity:1;fill-rule:nonzero;stroke:none"
            id="path164" />
        </g>
      </g>
      <g id="g166">
        <g id="g168" clip-path="url(#clipPath172)">
          <path d="m 204.355,175.359 v 0 0 l 0.743,0.746 v -0.003 l -0.743,-0.743"
            style="fill:url(#linearGradient178);fill-opacity:1;fill-rule:nonzero;stroke:none"
            id="path180" />
        </g>
      </g>
      <path
        d="m 429.473,294.82 c 0.769,1.688 1.156,3.422 1.156,5.157 0,0.003 0,0.007 0,0.007 0,-1.738 -0.387,-3.472 -1.156,-5.164"
        style="fill:#000000;fill-opacity:1;fill-rule:nonzero;stroke:none" id="path182" />
      <g id="g184">
        <g id="g186" clip-path="url(#clipPath190)">
          <path
            d="m 371.219,257.75 v 0 l -0.93,0.93 49.859,28.332 c 6.332,3.597 9.887,8.238 10.481,12.965 0,-1.735 -0.387,-3.469 -1.156,-5.157 -1.551,-3.402 -4.66,-6.617 -9.325,-9.269 L 371.219,257.75"
            style="fill:url(#linearGradient200);fill-opacity:1;fill-rule:nonzero;stroke:none"
            id="path202" />
        </g>
      </g>
      <path
        d="m 430.629,299.992 v 0.004 c -0.004,5.231 -3.5,10.461 -10.481,14.43 l -48.929,27.801 h -0.004 l 0.004,0.003 48.929,-27.8 c 6.989,-3.969 10.489,-9.207 10.481,-14.438"
        style="fill:#404040;fill-opacity:1;fill-rule:nonzero;stroke:none" id="path204" />
      <g id="g206">
        <g id="g208" clip-path="url(#clipPath212)">
          <path
            d="m 430.629,299.996 c -0.594,4.738 -4.149,9.375 -10.481,12.973 l -49.863,28.328 0.93,0.93 h 0.004 l 48.929,-27.801 c 6.981,-3.969 10.477,-9.199 10.481,-14.43"
            style="fill:url(#linearGradient222);fill-opacity:1;fill-rule:nonzero;stroke:none"
            id="path224" />
        </g>
      </g>
      <path
        d="m 199.727,410.621 c 0,0.004 0,0.008 0,0.012 0,-0.004 0,-0.008 0,-0.012 m 0.043,1.625 c 0,0.008 0,0.016 0,0.024 0,-0.008 0,-0.016 0,-0.024 m 0.003,0.047 c 0,0.016 0,0.031 0,0.047 0,-0.016 0,-0.031 0,-0.047 m 0,0.059 c 0.579,10.273 6.165,16.207 14.067,16.242 -3.426,-0.02 -6.41,-1.145 -8.746,-3.25 v 0.004 l -0.028,-0.028 c -0.246,-0.222 -0.48,-0.457 -0.711,-0.699 v 0 c -2.625,-2.777 -4.281,-6.937 -4.582,-12.269"
        style="fill:#404040;fill-opacity:1;fill-rule:nonzero;stroke:none" id="path226" />
      <g id="g228">
        <g id="g230" clip-path="url(#clipPath234)">
          <path
            d="m 199.727,409.105 v 1.461 c 0,0.02 0,0.036 0,0.055 0,0.004 0,0.008 0,0.012 0,0.551 0.015,1.09 0.043,1.613 0,0.008 0,0.016 0,0.024 0,0.007 0,0.015 0.003,0.023 0,0.016 0,0.031 0,0.047 0,0.004 0,0.008 0,0.012 0.301,5.332 1.957,9.492 4.582,12.269 v 0 0 l 0.731,-0.734 c -3.356,-3.028 -5.359,-8.078 -5.359,-14.782 m 5.339,16.215 0.028,0.028 c -0.008,-0.012 -0.02,-0.02 -0.028,-0.028"
            style="fill:url(#linearGradient248);fill-opacity:1;fill-rule:nonzero;stroke:none"
            id="path250" />
        </g>
      </g>
      <path d="m 213.84,428.594 c 0.008,0 0.019,0 0.031,0 -0.012,0 -0.023,0 -0.031,0"
        style="fill:#404040;fill-opacity:1;fill-rule:nonzero;stroke:none" id="path252" />
      <g id="g254">
        <g id="g256" clip-path="url(#clipPath260)">
          <path
            d="M 370.285,341.297 225.137,423.77 c -4.024,2.281 -7.832,3.363 -11.223,3.363 -3.457,0 -6.473,-1.125 -8.828,-3.246 l -0.731,0.734 v 0 c 0.231,0.242 0.465,0.477 0.711,0.699 0.008,0.008 0.02,0.016 0.028,0.024 2.336,2.105 5.32,3.23 8.746,3.25 v 0 c 0.008,0 0.019,0 0.031,0 0.016,0 0.027,0 0.043,0 3.391,0 7.199,-1.082 11.223,-3.364 l 146.082,-83 -0.004,-0.003 -0.93,-0.93"
            style="fill:url(#linearGradient272);fill-opacity:1;fill-rule:nonzero;stroke:none"
            id="path274" />
        </g>
      </g>
      <path
        d="M 523.461 388.828 C 523.578 379.336 521.676 371.68 517.769 365.867 L 548.101 365.867 L 548.101 411.125 L 523.461 411.125 L 523.461 388.828 Z M 509.633 345.762 L 502.262 345.762 L 502.262 365.867 L 508.129 365.867 C 513.324 370.344 515.863 377.992 515.758 388.828 L 515.758 418.496 L 555.816 418.496 L 555.816 365.867 L 562.516 365.867 L 562.516 345.762 L 555.141 345.762 L 555.141 358.496 L 509.633 358.496 L 509.633 345.762"
        style="fill:#ffffff;fill-opacity:1;fill-rule:nonzero;stroke:none" id="path276" />
      <path
        d="M 523.461 388.828 L 522.461 388.816 L 522.469 388.008 C 522.465 379.027 520.59 371.855 516.937 366.426 L 515.891 364.867 L 549.101 364.867 L 549.101 412.125 L 522.461 412.125 L 522.461 388.82 L 522.461 388.816 L 523.461 388.828 L 524.461 388.828 L 524.461 410.125 L 547.101 410.125 L 547.101 366.867 L 517.769 366.867 L 517.769 365.867 L 518.598 365.312 C 522.531 371.164 524.469 378.758 524.469 388.008 L 524.461 388.84 L 523.461 388.828 L 524.461 388.828 L 523.461 388.828 Z M 509.633 345.762 L 509.633 346.762 L 503.262 346.762 L 503.262 364.867 L 508.129 364.867 L 508.5 364.867 L 508.781 365.109 C 514.187 369.773 516.762 377.543 516.762 388.172 L 516.758 388.836 L 516.758 388.828 L 516.758 417.496 L 554.816 417.496 L 554.816 364.867 L 561.516 364.867 L 561.516 346.762 L 556.141 346.762 L 556.141 358.496 L 556.141 359.496 L 508.633 359.496 L 508.633 345.762 L 509.633 345.762 L 509.633 346.762 L 509.633 345.762 L 510.633 345.762 L 510.633 357.496 L 554.141 357.496 L 554.141 345.762 L 554.141 344.762 L 562.516 344.762 L 563.516 344.762 L 563.516 366.867 L 556.816 366.867 L 556.816 419.496 L 514.758 419.496 L 514.758 388.824 L 514.758 388.82 L 514.762 388.172 C 514.758 377.824 512.25 370.726 507.476 366.629 L 508.129 365.867 L 508.129 366.867 L 502.262 366.867 L 501.262 366.867 L 501.262 344.762 L 509.633 344.762 L 510.633 344.762 L 510.633 345.762 L 509.633 345.762"
        style="fill:#ffffff;fill-opacity:1;fill-rule:nonzero;stroke:none" id="path278" />
      <path
        d="M 584.34 371.273 C 588.785 366.777 594.215 364.531 600.641 364.531 C 607.066 364.531 612.504 366.777 616.937 371.273 C 621.383 375.769 623.609 381.516 623.609 388.496 C 623.609 395.476 621.383 401.223 616.937 405.719 C 612.504 410.215 607.066 412.461 600.641 412.461 C 594.215 412.461 588.785 410.215 584.34 405.719 C 579.906 401.223 577.68 395.476 577.68 388.496 C 577.68 381.516 579.906 375.769 584.34 371.273 Z M 622.641 366.25 C 616.742 360.184 609.41 357.156 600.641 357.156 C 591.871 357.156 584.535 360.184 578.648 366.25 C 572.75 372.309 569.809 379.726 569.809 388.496 C 569.809 397.266 572.75 404.684 578.648 410.742 C 584.535 416.809 591.871 419.84 600.641 419.84 C 609.359 419.84 616.676 416.793 622.601 410.703 C 628.519 404.613 631.48 397.211 631.48 388.496 C 631.48 379.726 628.531 372.309 622.641 366.25"
        style="fill:#ffffff;fill-opacity:1;fill-rule:nonzero;stroke:none" id="path280" />
      <path
        d="M 584.34 371.273 L 583.629 370.57 C 588.234 365.894 593.98 363.519 600.641 363.531 C 607.297 363.519 613.055 365.894 617.648 370.57 C 622.285 375.25 624.617 381.305 624.609 388.496 C 624.617 395.687 622.285 401.742 617.648 406.422 C 613.055 411.098 607.297 413.473 600.641 413.461 C 593.98 413.473 588.234 411.098 583.629 406.422 C 579.004 401.742 576.672 395.687 576.68 388.496 C 576.672 381.305 579.004 375.25 583.629 370.57 L 584.34 371.273 L 585.055 371.976 C 580.812 376.293 578.691 381.723 578.68 388.496 C 578.691 395.269 580.812 400.699 585.055 405.016 L 585.051 405.016 C 589.332 409.332 594.445 411.449 600.641 411.461 C 606.832 411.449 611.957 409.332 616.226 405.016 L 616.242 405 L 616.226 405.016 C 620.48 400.699 622.598 395.269 622.609 388.496 C 622.598 381.723 620.48 376.293 616.226 371.976 C 611.957 367.66 606.832 365.543 600.641 365.531 C 594.445 365.543 589.332 367.66 585.051 371.976 L 584.34 371.273 Z M 622.641 366.25 L 621.926 366.945 C 616.195 361.07 609.18 358.168 600.641 358.156 C 592.098 358.168 585.086 361.07 579.363 366.945 C 573.644 372.84 570.82 379.949 570.809 388.496 C 570.82 397.043 573.644 404.152 579.363 410.047 C 585.086 415.922 592.098 418.828 600.641 418.84 C 609.129 418.828 616.125 415.91 621.887 410.004 C 627.629 404.082 630.469 396.984 630.48 388.496 C 630.469 379.949 627.637 372.84 621.926 366.945 L 622.641 366.25 L 623.359 365.555 C 629.422 371.781 632.488 379.504 632.48 388.496 C 632.488 397.437 629.414 405.144 623.32 411.398 C 617.226 417.676 609.594 420.851 600.641 420.84 C 591.641 420.851 583.984 417.691 577.93 411.437 L 577.93 411.441 C 571.855 405.211 568.801 397.488 568.809 388.496 C 568.801 379.504 571.855 371.781 577.93 365.551 L 577.93 365.555 C 583.984 359.301 591.641 356.148 600.641 356.156 C 609.637 356.148 617.293 359.301 623.359 365.555 L 622.641 366.25"
        style="fill:#ffffff;fill-opacity:1;fill-rule:nonzero;stroke:none" id="path282" />
      <path
        d="M 670.289 357.156 C 661.461 357.156 654.059 360.144 648.082 366.125 C 642.094 372.101 639.117 379.559 639.117 388.496 C 639.117 397.434 642.094 404.891 648.082 410.867 C 654.059 416.848 661.461 419.84 670.289 419.84 C 679.332 419.84 686.684 416.57 692.328 410.035 L 686.957 404.836 C 682.887 409.922 677.32 412.461 670.289 412.461 C 663.746 412.461 658.226 410.254 653.734 405.84 C 649.234 401.426 646.988 395.644 646.988 388.496 C 646.988 381.348 649.234 375.562 653.734 371.152 C 658.226 366.738 663.746 364.531 670.289 364.531 C 677.496 364.531 683.637 367.434 688.726 373.242 L 694.086 367.883 C 691.344 364.586 687.914 361.973 683.773 360.051 C 679.644 358.121 675.141 357.156 670.289 357.156"
        style="fill:#ffffff;fill-opacity:1;fill-rule:nonzero;stroke:none" id="path284" />
      <path
        d="M 670.289 357.156 L 670.289 358.156 C 661.684 358.168 654.594 361.039 648.789 366.832 C 642.988 372.633 640.125 379.781 640.117 388.496 C 640.125 397.211 642.988 404.359 648.789 410.16 C 654.594 415.957 661.684 418.828 670.289 418.84 C 679.094 418.824 686.094 415.707 691.57 409.383 L 692.328 410.035 L 691.633 410.754 L 686.262 405.551 L 686.957 404.836 L 687.738 405.461 C 683.496 410.781 677.555 413.476 670.289 413.461 C 663.519 413.469 657.695 411.144 653.035 406.555 C 648.328 401.949 645.976 395.848 645.988 388.496 C 645.976 381.144 648.328 375.035 653.035 370.437 C 657.695 365.848 663.519 363.523 670.289 363.531 C 677.769 363.519 684.25 366.59 689.476 372.582 L 688.726 373.242 L 688.019 372.535 L 693.379 367.176 L 694.086 367.883 L 693.316 368.519 C 690.668 365.34 687.371 362.824 683.351 360.957 C 679.355 359.09 675.012 358.16 670.289 358.156 L 670.289 357.156 L 670.289 356.156 C 675.273 356.156 679.93 357.148 684.195 359.144 C 688.461 361.121 692.016 363.828 694.855 367.242 L 695.437 367.941 L 689.434 373.949 L 688.676 374.707 L 687.973 373.902 C 683.027 368.273 677.223 365.543 670.289 365.531 C 663.969 365.543 658.762 367.629 654.437 371.867 L 654.434 371.867 C 650.137 376.086 647.996 381.551 647.988 388.496 C 647.996 395.441 650.137 400.898 654.434 405.125 L 654.437 405.125 C 658.762 409.363 663.969 411.449 670.289 411.461 C 677.082 411.445 682.273 409.062 686.176 404.211 L 686.863 403.351 L 693.023 409.316 L 693.703 409.973 L 693.086 410.687 C 687.277 417.437 679.57 420.851 670.289 420.84 C 661.234 420.848 653.519 417.734 647.375 411.574 C 641.199 405.426 638.105 397.652 638.117 388.496 C 638.105 379.34 641.199 371.566 647.375 365.414 C 653.519 359.258 661.234 356.148 670.289 356.156 L 670.289 357.156"
        style="fill:#ffffff;fill-opacity:1;fill-rule:nonzero;stroke:none" id="path286" />
      <path
        d="M 725.269 358.496 L 717.555 358.496 L 717.555 411.125 L 700.797 411.125 L 700.797 418.496 L 742.027 418.496 L 742.027 411.125 L 725.269 411.125 L 725.269 358.496"
        style="fill:#ffffff;fill-opacity:1;fill-rule:nonzero;stroke:none" id="path288" />
      <path
        d="M 725.269 358.496 L 725.269 359.496 L 718.555 359.496 L 718.555 412.125 L 701.797 412.125 L 701.797 417.496 L 741.027 417.496 L 741.027 412.125 L 724.269 412.125 L 724.269 358.496 L 725.269 358.496 L 725.269 359.496 L 725.269 358.496 L 726.269 358.496 L 726.269 410.125 L 743.027 410.125 L 743.027 418.496 L 743.027 419.496 L 699.797 419.496 L 699.797 411.125 L 699.797 410.125 L 716.555 410.125 L 716.555 357.496 L 725.269 357.496 L 726.269 357.496 L 726.269 358.496 L 725.269 358.496"
        style="fill:#ffffff;fill-opacity:1;fill-rule:nonzero;stroke:none" id="path290" />
      <path
        d="M 794.961 418.496 L 772.258 367.883 C 769.121 360.73 764.469 357.156 758.266 357.156 C 756.422 357.156 754.437 357.601 752.309 358.496 L 754.32 365.621 C 755.609 364.891 756.949 364.531 758.344 364.531 C 760.133 364.531 761.519 364.879 762.496 365.574 C 763.473 366.273 764.379 367.551 765.219 369.391 L 767.398 374.172 L 747.203 418.496 L 756.254 418.496 L 771.086 384.055 L 771.418 384.055 L 785.906 418.496 L 794.961 418.496"
        style="fill:#ffffff;fill-opacity:1;fill-rule:nonzero;stroke:none" id="path292" />
      <path
        d="M 794.961 418.496 L 794.047 418.906 L 771.344 368.289 L 771.34 368.281 C 768.254 361.348 764.039 358.191 758.266 358.156 C 756.582 358.156 754.73 358.562 752.695 359.418 L 752.309 358.496 L 753.273 358.223 L 755.281 365.348 L 754.32 365.621 L 753.832 364.75 C 755.254 363.945 756.773 363.527 758.344 363.531 C 760.254 363.531 761.855 363.894 763.078 364.762 C 764.281 365.633 765.246 367.051 766.129 368.973 L 768.309 373.754 L 768.496 374.172 L 748.758 417.496 L 755.598 417.496 L 770.426 383.055 L 771.418 383.055 L 772.082 383.055 L 786.57 417.496 L 794.961 417.496 L 794.961 418.496 L 794.047 418.906 L 794.961 418.496 L 794.961 419.496 L 785.906 419.496 L 785.242 419.496 L 770.492 384.441 L 771.418 384.055 L 771.418 385.055 L 771.086 385.055 L 771.086 384.055 L 772.004 384.449 L 756.914 419.496 L 747.203 419.496 L 745.648 419.496 L 766.297 374.172 L 764.309 369.805 C 763.516 368.051 762.664 366.918 761.914 366.391 C 761.184 365.863 760.008 365.527 758.344 365.531 C 757.121 365.531 755.969 365.84 754.812 366.492 L 753.703 367.117 L 751.348 358.769 L 751.105 357.918 L 751.922 357.574 C 754.144 356.641 756.258 356.156 758.266 356.156 C 764.894 356.125 769.988 360.117 773.172 367.48 L 773.168 367.473 L 796.504 419.496 L 794.961 419.496 L 794.961 418.496"
        style="fill:#ffffff;fill-opacity:1;fill-rule:nonzero;stroke:none" id="path294" />
      <path
        d="M 803.691 358.496 L 803.691 418.496 L 847.101 418.496 L 847.101 358.496 L 839.387 358.496 L 839.387 411.125 L 811.394 411.125 L 811.394 358.496 L 803.691 358.496"
        style="fill:#ffffff;fill-opacity:1;fill-rule:nonzero;stroke:none" id="path296" />
      <path
        d="M 803.691 358.496 L 804.691 358.496 L 804.691 417.496 L 846.098 417.496 L 846.098 359.496 L 840.387 359.496 L 840.387 412.125 L 810.394 412.125 L 810.394 359.496 L 803.691 359.496 L 803.691 358.496 L 804.691 358.496 L 803.691 358.496 L 803.691 357.496 L 811.394 357.496 L 812.394 357.496 L 812.394 410.125 L 838.387 410.125 L 838.387 357.496 L 847.101 357.496 L 848.101 357.496 L 848.101 419.496 L 802.691 419.496 L 802.691 357.496 L 803.691 357.496 L 803.691 358.496"
        style="fill:#ffffff;fill-opacity:1;fill-rule:nonzero;stroke:none" id="path298" />
      <path
        d="M 860.84 358.496 L 860.84 418.496 L 868.547 418.496 L 868.547 392.773 L 898.547 392.773 L 898.547 418.496 L 906.262 418.496 L 906.262 358.496 L 898.547 358.496 L 898.547 385.566 L 868.547 385.566 L 868.547 358.496 L 860.84 358.496"
        style="fill:#ffffff;fill-opacity:1;fill-rule:nonzero;stroke:none" id="path300" />
      <path
        d="M 860.84 358.496 L 861.84 358.496 L 861.84 417.496 L 867.547 417.496 L 867.547 391.773 L 899.547 391.773 L 899.547 417.496 L 905.262 417.496 L 905.262 359.496 L 899.547 359.496 L 899.547 386.566 L 867.547 386.566 L 867.547 359.496 L 860.84 359.496 L 860.84 358.496 L 861.84 358.496 L 860.84 358.496 L 860.84 357.496 L 868.547 357.496 L 869.547 357.496 L 869.547 384.566 L 897.547 384.566 L 897.547 357.496 L 906.262 357.496 L 907.262 357.496 L 907.262 419.496 L 898.547 419.496 L 897.547 419.496 L 897.547 393.773 L 869.547 393.773 L 869.547 419.496 L 860.84 419.496 L 859.84 419.496 L 859.84 357.496 L 860.84 357.496 L 860.84 358.496"
        style="fill:#ffffff;fill-opacity:1;fill-rule:nonzero;stroke:none" id="path302" />
      <path
        d="M 930.769 371.273 C 935.215 366.777 940.644 364.531 947.07 364.531 C 953.496 364.531 958.934 366.777 963.367 371.273 C 967.812 375.769 970.039 381.516 970.039 388.496 C 970.039 395.476 967.812 401.223 963.367 405.719 C 958.934 410.215 953.496 412.461 947.07 412.461 C 940.644 412.461 935.215 410.215 930.769 405.719 C 926.34 401.223 924.109 395.476 924.109 388.496 C 924.109 381.516 926.34 375.769 930.769 371.273 Z M 969.07 366.25 C 963.176 360.184 955.84 357.156 947.07 357.156 C 938.301 357.156 930.969 360.184 925.078 366.25 C 919.18 372.309 916.238 379.726 916.238 388.496 C 916.238 397.266 919.18 404.684 925.078 410.742 C 930.969 416.809 938.301 419.84 947.07 419.84 C 955.793 419.84 963.105 416.793 969.031 410.703 C 974.949 404.613 977.91 397.211 977.91 388.496 C 977.91 379.726 974.961 372.309 969.07 366.25"
        style="fill:#ffffff;fill-opacity:1;fill-rule:nonzero;stroke:none" id="path304" />
      <path
        d="M 930.769 371.273 L 930.059 370.57 C 934.668 365.894 940.41 363.519 947.07 363.531 C 953.73 363.519 959.484 365.894 964.082 370.57 C 968.715 375.25 971.047 381.305 971.039 388.496 C 971.047 395.687 968.715 401.742 964.082 406.422 C 959.484 411.098 953.73 413.473 947.07 413.461 C 940.41 413.473 934.668 411.098 930.059 406.422 C 925.434 401.742 923.101 395.687 923.109 388.496 C 923.101 381.305 925.434 375.25 930.059 370.57 L 930.769 371.273 L 931.484 371.976 C 927.242 376.293 925.121 381.723 925.109 388.496 C 925.121 395.269 927.242 400.699 931.484 405.016 C 935.762 409.332 940.879 411.449 947.07 411.461 C 953.262 411.449 958.387 409.332 962.656 405.016 L 962.687 404.984 L 962.656 405.016 C 966.91 400.699 969.031 395.269 969.039 388.496 C 969.031 381.723 966.91 376.293 962.656 371.976 C 958.387 367.66 953.262 365.543 947.07 365.531 C 940.879 365.543 935.762 367.66 931.484 371.976 L 930.769 371.273 Z M 969.07 366.25 L 968.355 366.945 C 962.625 361.07 955.609 358.168 947.07 358.156 C 938.531 358.168 931.516 361.07 925.797 366.945 L 925.766 366.976 L 925.797 366.945 C 920.074 372.84 917.25 379.949 917.238 388.496 C 917.25 397.043 920.074 404.152 925.797 410.047 C 931.516 415.922 938.531 418.828 947.07 418.84 C 955.559 418.828 962.555 415.91 968.316 410.004 C 974.059 404.082 976.902 396.984 976.91 388.496 C 976.902 379.949 974.066 372.84 968.355 366.945 L 969.07 366.25 L 969.789 365.555 C 975.855 371.781 978.918 379.504 978.91 388.496 C 978.918 397.437 975.844 405.144 969.75 411.398 C 963.656 417.676 956.023 420.851 947.07 420.84 C 938.07 420.851 930.418 417.691 924.359 411.437 L 924.359 411.441 C 918.285 405.211 915.23 397.488 915.238 388.496 C 915.23 379.504 918.285 371.781 924.359 365.551 L 924.359 365.555 C 930.418 359.301 938.07 356.148 947.07 356.156 C 956.07 356.148 963.723 359.301 969.789 365.555 L 969.07 366.25"
        style="fill:#ffffff;fill-opacity:1;fill-rule:nonzero;stroke:none" id="path306" />
      <path
        d="M 1017.136 365.867 L 1032.646 365.867 C 1035.606 365.867 1038.006 366.902 1039.856 368.976 C 1041.696 371.035 1042.616 373.301 1042.616 375.762 C 1042.616 378.219 1041.666 380.465 1039.766 382.504 C 1037.876 384.543 1035.376 385.566 1032.306 385.566 L 1017.136 385.566 L 1017.136 365.867 Z M 1017.136 392.773 L 1031.136 392.773 C 1034.046 392.773 1036.376 393.73 1038.136 395.664 C 1039.896 397.59 1040.776 399.695 1040.776 401.988 C 1040.776 404.277 1039.926 406.379 1038.216 408.269 C 1036.516 410.172 1034.266 411.125 1031.476 411.125 L 1017.136 411.125 L 1017.136 392.773 Z M 1009.436 358.496 L 1009.436 418.496 L 1031.136 418.496 C 1035.826 418.496 1039.896 416.941 1043.326 413.848 C 1046.766 410.742 1048.486 406.848 1048.486 402.156 C 1048.486 399.309 1047.746 396.793 1046.256 394.613 C 1044.786 392.434 1042.816 390.785 1040.356 389.668 L 1040.356 389.336 C 1043.306 388.332 1045.746 386.598 1047.646 384.141 C 1049.536 381.68 1050.496 378.828 1050.496 375.59 C 1050.496 370.676 1048.696 366.598 1045.086 363.359 C 1041.486 360.117 1037.226 358.496 1032.306 358.496 L 1009.436 358.496"
        style="fill:#ffffff;fill-opacity:1;fill-rule:nonzero;stroke:none" id="path308" />
      <path
        d="M 1017.136 365.867 L 1017.136 364.867 L 1032.646 364.867 C 1035.836 364.855 1038.586 366.027 1040.596 368.309 C 1042.576 370.508 1043.626 373.047 1043.616 375.762 C 1043.626 378.48 1042.536 381.008 1040.496 383.187 C 1038.426 385.434 1035.596 386.578 1032.306 386.566 L 1016.136 386.566 L 1016.136 364.867 L 1017.136 364.867 L 1017.136 365.867 L 1018.136 365.867 L 1018.136 384.566 L 1032.306 384.566 C 1035.166 384.555 1037.316 383.648 1039.036 381.824 C 1040.796 379.918 1041.606 377.953 1041.616 375.762 C 1041.606 373.555 1040.816 371.562 1039.106 369.641 C 1037.436 367.781 1035.376 366.883 1032.646 366.867 L 1017.136 366.867 L 1017.136 365.867 L 1018.136 365.867 L 1017.136 365.867 Z M 1017.136 392.773 L 1017.136 391.773 L 1031.136 391.773 C 1034.256 391.762 1036.936 392.84 1038.876 394.992 L 1038.876 394.988 C 1040.766 397.051 1041.776 399.434 1041.776 401.988 C 1041.776 404.527 1040.806 406.902 1038.956 408.941 L 1038.956 408.937 C 1037.086 411.055 1034.486 412.137 1031.476 412.125 L 1016.136 412.125 L 1016.136 391.773 L 1017.136 391.773 L 1017.136 392.773 L 1018.136 392.773 L 1018.136 410.125 L 1031.476 410.125 C 1034.046 410.109 1035.946 409.289 1037.466 407.605 L 1037.476 407.598 L 1037.466 407.601 C 1039.036 405.851 1039.766 404.023 1039.776 401.988 C 1039.766 399.961 1039.016 398.125 1037.396 396.34 L 1037.396 396.336 C 1035.816 394.621 1033.826 393.785 1031.136 393.773 L 1017.136 393.773 L 1017.136 392.773 L 1018.136 392.773 L 1017.136 392.773 Z M 1009.436 358.496 L 1010.436 358.496 L 1010.436 417.496 L 1031.136 417.496 C 1035.606 417.488 1039.386 416.043 1042.656 413.105 C 1045.906 410.16 1047.476 406.601 1047.486 402.156 C 1047.486 399.48 1046.796 397.187 1045.436 395.176 C 1044.056 393.144 1042.246 391.629 1039.936 390.578 L 1039.356 390.312 L 1039.356 389.336 L 1039.356 388.621 L 1040.026 388.391 C 1042.816 387.437 1045.066 385.836 1046.856 383.527 L 1046.866 383.516 L 1046.856 383.531 C 1048.616 381.234 1049.496 378.633 1049.496 375.59 C 1049.486 370.918 1047.826 367.18 1044.416 364.101 C 1040.976 361.019 1037.006 359.504 1032.306 359.496 L 1009.436 359.496 L 1009.436 358.496 L 1010.436 358.496 L 1009.436 358.496 L 1009.436 357.496 L 1032.306 357.496 C 1037.446 357.488 1041.986 359.215 1045.756 362.617 C 1049.556 366.012 1051.506 370.43 1051.496 375.59 C 1051.506 379.023 1050.466 382.125 1048.436 384.75 L 1048.426 384.762 L 1048.436 384.754 C 1046.426 387.355 1043.806 389.223 1040.676 390.281 L 1040.356 389.336 L 1041.356 389.336 L 1041.356 389.668 L 1040.356 389.668 L 1040.766 388.758 C 1043.376 389.941 1045.516 391.719 1047.086 394.055 L 1047.086 394.051 C 1048.686 396.398 1049.486 399.137 1049.486 402.156 C 1049.496 407.09 1047.636 411.324 1043.996 414.59 L 1043.976 414.609 L 1043.996 414.59 C 1040.396 417.844 1036.046 419.504 1031.136 419.496 L 1008.436 419.496 L 1008.436 357.496 L 1009.436 357.496 L 1009.436 358.496"
        style="fill:#ffffff;fill-opacity:1;fill-rule:nonzero;stroke:none" id="path310" />
    </g>
  </g>
</svg>