<?xml version="1.0" encoding="utf-8"?>
<svg viewBox="269.308 154.143 181.365 53.401" width="181.365" height="53.401"
    xmlns="http://www.w3.org/2000/svg">
    <path
        d="M 279.6 207.544 C 279.185 207.544 278.78 207.544 278.369 207.529 C 277.517 207.52 276.666 207.446 275.825 207.31 C 275.041 207.172 274.282 206.919 273.571 206.556 C 272.869 206.194 272.228 205.722 271.671 205.154 C 271.109 204.594 270.638 203.945 270.282 203.231 C 269.923 202.512 269.675 201.742 269.544 200.947 C 269.409 200.094 269.337 199.232 269.33 198.365 C 269.33 198.075 269.308 197.108 269.308 197.108 L 269.308 164.562 C 269.308 164.562 269.32 163.611 269.33 163.33 C 269.337 162.467 269.409 161.605 269.544 160.753 C 269.675 159.955 269.924 159.183 270.284 158.463 C 270.638 157.749 271.106 157.099 271.666 156.536 C 272.224 155.967 272.867 155.488 273.571 155.119 C 274.281 154.759 275.039 154.511 275.821 154.379 C 276.664 154.242 277.519 154.17 278.373 154.16 L 279.6 154.143 L 440.377 154.143 L 441.622 154.16 C 442.469 154.17 443.313 154.242 444.15 154.379 C 444.94 154.516 445.705 154.77 446.422 155.134 C 447.834 155.871 448.982 157.037 449.707 158.469 C 450.062 159.184 450.307 159.95 450.435 160.739 C 450.577 161.599 450.655 162.468 450.673 163.339 L 450.673 198.378 C 450.656 199.233 450.58 200.086 450.442 200.931 C 450.313 201.731 450.067 202.506 449.707 203.231 C 448.976 204.652 447.828 205.812 446.42 206.546 C 445.705 206.912 444.941 207.167 444.152 207.306 C 443.31 207.443 442.461 207.517 441.608 207.525 C 441.21 207.525 440.793 207.54 440.387 207.54 L 279.609 207.54 L 279.6 207.544 Z"
        style="" transform="matrix(1, 0, 0, 1, 0, -1.7763568394002505e-15)" />
    <path class="cls-1"
        d="M 336.454 190.817 L 330.06 190.817 L 328.494 195.097 L 325.678 195.097 L 331.938 179.119 L 334.598 179.119 L 341.002 195.097 L 338.053 195.097 L 336.454 190.817 Z M 330.865 188.65 L 335.633 188.65 L 333.923 184.073 C 333.69 183.441 333.457 182.743 333.229 181.978 C 333.024 182.656 332.8 183.346 332.559 184.051 L 330.865 188.65 Z"
        style="fill: rgb(255, 255, 255);" transform="matrix(1, 0, 0, 1, 0, -1.7763568394002505e-15)" />
    <path class="cls-1"
        d="M 342.277 186.11 C 342.277 185.229 342.248 184.258 342.191 183.197 L 344.749 183.197 C 344.843 183.699 344.91 184.205 344.947 184.715 C 346.004 183.558 347.218 182.981 348.586 182.981 C 350.253 182.958 351.771 183.943 352.427 185.477 C 352.844 186.344 353.052 187.441 353.052 188.769 C 353.085 189.994 352.841 191.211 352.339 192.328 C 351.916 193.259 351.222 194.04 350.35 194.567 C 349.452 195.087 348.43 195.351 347.394 195.331 C 346.581 195.329 345.776 195.19 345.01 194.921 L 345.01 199.828 L 342.286 200.06 L 342.277 186.11 Z M 349.438 192.191 C 349.994 191.445 350.271 190.356 350.271 188.92 C 350.271 187.59 350.042 186.626 349.583 186.028 C 349.155 185.444 348.469 185.108 347.747 185.128 C 347.234 185.125 346.729 185.253 346.279 185.504 C 345.807 185.772 345.376 186.111 345.001 186.507 L 345.001 192.879 C 345.304 193.022 345.622 193.127 345.951 193.194 C 346.301 193.27 346.659 193.31 347.019 193.31 C 348.079 193.31 348.886 192.937 349.438 192.191 Z"
        style="fill: rgb(255, 255, 255);" transform="matrix(1, 0, 0, 1, 0, -1.7763568394002505e-15)" />
    <path class="cls-1"
        d="M 354.789 186.11 C 354.789 185.229 354.76 184.258 354.701 183.197 L 357.26 183.197 C 357.356 183.699 357.422 184.205 357.457 184.715 C 358.517 183.558 359.73 182.981 361.096 182.981 C 362.766 182.953 364.286 183.941 364.94 185.477 C 365.355 186.344 365.562 187.441 365.562 188.769 C 365.597 189.994 365.355 191.212 364.851 192.328 C 364.427 193.259 363.734 194.039 362.86 194.567 C 361.964 195.088 360.942 195.353 359.906 195.331 C 359.094 195.329 358.289 195.19 357.522 194.921 L 357.522 199.828 L 354.789 200.068 L 354.789 186.11 Z M 361.952 192.191 C 362.507 191.445 362.783 190.356 362.783 188.92 C 362.783 187.59 362.554 186.626 362.095 186.028 C 361.668 185.444 360.982 185.108 360.26 185.128 C 359.747 185.125 359.241 185.253 358.791 185.504 C 358.319 185.772 357.888 186.111 357.514 186.507 L 357.514 192.879 C 357.815 193.022 358.134 193.127 358.461 193.194 C 358.813 193.27 359.171 193.31 359.531 193.31 C 360.596 193.31 361.405 192.937 361.956 192.191 L 361.952 192.191 Z"
        style="fill: rgb(255, 255, 255);" transform="matrix(1, 0, 0, 1, 0, -1.7763568394002505e-15)" />
    <path class="cls-1"
        d="M 370.705 194.34 C 369.54 193.703 368.595 192.728 367.991 191.545 C 367.361 190.331 367.045 188.899 367.045 187.246 C 367.045 185.451 367.406 183.927 368.128 182.675 C 368.818 181.462 369.851 180.482 371.099 179.857 C 372.411 179.216 373.856 178.893 375.317 178.916 C 376.202 178.911 377.085 179.013 377.948 179.218 C 378.753 179.41 379.535 179.689 380.279 180.051 L 379.583 182.147 C 378.297 181.494 376.88 181.142 375.439 181.111 C 374.419 181.087 373.413 181.331 372.521 181.821 C 371.675 182.305 370.995 183.033 370.57 183.91 C 370.082 184.952 369.845 186.092 369.876 187.242 C 369.858 188.278 370.04 189.307 370.411 190.275 C 370.747 191.129 371.335 191.861 372.098 192.371 C 372.865 192.885 373.833 193.141 375.002 193.141 C 375.534 193.141 376.066 193.098 376.59 193.01 C 377.098 192.927 377.596 192.798 378.079 192.625 L 378.079 189.385 L 374.395 189.385 L 374.395 187.258 L 380.734 187.258 L 380.734 193.976 C 379.815 194.406 378.853 194.736 377.863 194.958 C 376.881 195.182 375.875 195.296 374.867 195.298 C 373.421 195.339 371.988 195.01 370.705 194.34 Z"
        style="fill: rgb(255, 255, 255);" transform="matrix(1, 0, 0, 1, 0, -1.7763568394002505e-15)" />
    <path class="cls-1"
        d="M 390.546 195.097 C 390.445 194.576 390.382 194.049 390.36 193.519 C 389.904 194.047 389.347 194.48 388.721 194.793 C 388.015 195.149 387.235 195.328 386.444 195.315 C 385.8 195.324 385.16 195.187 384.576 194.914 C 384.019 194.653 383.554 194.23 383.237 193.702 C 382.892 193.1 382.721 192.415 382.745 191.723 C 382.704 190.657 383.165 189.634 383.991 188.96 C 384.821 188.273 386.207 187.93 388.147 187.929 C 388.873 187.929 389.597 187.98 390.314 188.084 L 390.314 187.852 C 390.314 186.801 390.091 186.059 389.643 185.629 C 389.196 185.198 388.552 184.982 387.712 184.979 C 387.083 184.985 386.457 185.071 385.847 185.232 C 385.252 185.38 384.672 185.582 384.114 185.839 L 383.681 183.854 C 384.301 183.591 384.943 183.387 385.601 183.247 C 386.426 183.061 387.269 182.969 388.115 182.973 C 389.012 182.947 389.905 183.107 390.737 183.439 C 391.471 183.763 392.068 184.333 392.425 185.05 C 392.83 185.81 393.032 186.834 393.032 188.121 L 393.032 192.852 C 393.032 193.345 393.06 194.089 393.121 195.091 L 390.546 195.097 Z M 388.921 192.893 C 389.446 192.651 389.92 192.306 390.31 191.879 L 390.31 189.67 C 389.706 189.598 389.1 189.558 388.492 189.549 C 387.367 189.549 386.59 189.731 386.161 190.096 C 385.727 190.458 385.486 191.001 385.509 191.567 C 385.509 192.156 385.666 192.589 385.979 192.867 C 386.331 193.169 386.788 193.324 387.252 193.3 C 387.833 193.292 388.402 193.153 388.921 192.893 Z"
        style="fill: rgb(255, 255, 255);" transform="matrix(1, 0, 0, 1, 0, -1.7763568394002505e-15)" />
    <path class="cls-1"
        d="M 395.405 192.243 L 395.405 178.18 L 398.118 177.965 L 398.118 191.757 C 398.118 192.264 398.204 192.626 398.376 192.84 C 398.588 193.066 398.892 193.183 399.2 193.155 C 399.442 193.142 399.682 193.101 399.914 193.033 L 400.235 194.984 C 399.931 195.099 399.615 195.18 399.293 195.231 C 398.945 195.291 398.592 195.323 398.239 195.324 C 396.35 195.319 395.405 194.291 395.405 192.243 Z"
        style="fill: rgb(255, 255, 255);" transform="matrix(1, 0, 0, 1, 0, -1.7763568394002505e-15)" />
    <path class="cls-1"
        d="M 402.188 192.243 L 402.188 178.18 L 404.899 177.965 L 404.899 191.757 C 404.899 192.264 404.985 192.626 405.159 192.84 C 405.37 193.067 405.673 193.183 405.98 193.155 C 406.224 193.142 406.464 193.101 406.697 193.033 L 407.016 194.984 C 406.712 195.099 406.396 195.18 406.074 195.231 C 405.726 195.291 405.373 195.323 405.02 195.324 C 403.13 195.319 402.186 194.291 402.188 192.243 Z"
        style="fill: rgb(255, 255, 255);" transform="matrix(1, 0, 0, 1, 0, -1.7763568394002505e-15)" />
    <path class="cls-1"
        d="M 418.308 189.494 L 410.522 189.494 C 410.648 191.987 411.836 193.233 414.085 193.233 C 414.663 193.23 415.237 193.162 415.799 193.029 C 416.375 192.896 416.937 192.713 417.482 192.483 L 418.077 194.348 C 416.674 195.008 415.138 195.339 413.589 195.315 C 412.325 195.315 411.258 195.077 410.39 194.6 C 409.539 194.135 408.857 193.413 408.439 192.538 C 407.978 191.518 407.756 190.406 407.79 189.288 C 407.759 188.117 407.995 186.955 408.483 185.891 C 408.902 184.994 409.575 184.241 410.419 183.724 C 411.284 183.213 412.274 182.954 413.279 182.975 C 414.404 182.975 415.344 183.237 416.096 183.762 C 416.847 184.285 417.428 185.015 417.772 185.863 C 418.144 186.788 418.326 187.778 418.308 188.775 L 418.308 189.494 Z M 415.65 187.761 C 415.6 186.812 415.36 186.101 414.935 185.626 C 414.498 185.149 413.872 184.888 413.224 184.916 C 412.571 184.895 411.939 185.157 411.492 185.633 C 411.032 186.11 410.733 186.82 410.591 187.761 L 415.65 187.761 Z"
        style="fill: rgb(255, 255, 255);" transform="matrix(1, 0, 0, 1, 0, -1.7763568394002505e-15)" />
    <path class="cls-1"
        d="M 420.502 186.186 C 420.502 185.531 420.473 184.534 420.416 183.197 L 422.962 183.197 C 423.006 183.529 423.048 183.923 423.088 184.383 C 423.131 184.842 423.157 185.216 423.171 185.504 C 423.444 185.039 423.756 184.598 424.103 184.185 C 424.403 183.832 424.764 183.539 425.172 183.319 C 425.601 183.09 426.082 182.975 426.567 182.983 C 426.933 182.976 427.297 183.02 427.65 183.114 L 427.309 185.475 C 427.023 185.391 426.725 185.349 426.427 185.353 C 425.83 185.341 425.245 185.512 424.749 185.843 C 424.153 186.293 423.636 186.839 423.217 187.457 L 423.217 195.101 L 420.502 195.101 L 420.502 186.186 Z"
        style="fill: rgb(255, 255, 255);" transform="matrix(1, 0, 0, 1, 0, -1.7763568394002505e-15)" />
    <path class="cls-1"
        d="M 429.28 199.964 C 428.948 199.91 428.622 199.831 428.3 199.728 L 428.795 197.742 C 428.979 197.793 429.211 197.842 429.491 197.891 C 429.752 197.937 430.018 197.962 430.283 197.964 C 431.488 197.964 432.393 197.188 432.997 195.636 L 433.172 195.202 L 428.784 183.206 L 431.707 183.206 L 433.912 189.911 C 434.2 190.773 434.432 191.654 434.608 192.546 C 434.812 191.679 435.055 190.819 435.336 189.966 L 437.571 183.197 L 440.316 183.197 L 435.94 195.25 C 435.612 196.221 435.163 197.147 434.605 198.007 C 434.178 198.657 433.597 199.192 432.913 199.56 C 432.18 199.917 431.372 200.092 430.557 200.068 C 430.13 200.07 429.702 200.036 429.28 199.964 Z"
        style="fill: rgb(255, 255, 255);" transform="matrix(1, 0, 0, 1, 0, -1.7763568394002505e-15)" />
    <g
        transform="matrix(0.2167070060968399, 0, 0, 0.2167070060968399, 269.3096618652343, 154.65380859375)"
        style="">
        <path class="cls-2"
            d="M172.35,46.41h-71c-33.44,0-45.66,12.23-45.66,45.66v71c0,33.43,12.22,45.66,45.66,45.66h71c33.43,0,45.68-12.23,45.68-45.66v-71C218,58.64,205.78,46.41,172.35,46.41Z"
            transform="translate(-5.54 -5.54)" style="fill: rgb(200, 16, 46); fill-rule: evenodd;" />
    </g>
    <path class="cls-1"
        d="M 287.145 181.097 L 288.079 181.097 L 288.079 185.696 L 287.145 185.696 L 287.145 183.827 L 285.038 183.827 L 285.038 185.696 L 284.107 185.696 L 284.107 181.097 L 285.038 181.097 L 285.038 182.953 L 287.145 182.953 L 287.145 181.097 Z M 292.402 183.731 C 292.402 184.477 292.029 184.877 291.355 184.877 C 290.682 184.877 290.304 184.467 290.304 183.698 L 290.304 181.097 L 289.373 181.097 L 289.373 183.728 C 289.373 185.028 290.091 185.763 291.344 185.763 C 292.6 185.763 293.335 185.007 293.335 183.689 L 293.335 181.089 L 292.402 181.089 L 292.402 183.731 Z M 303.183 184.26 L 302.141 181.097 L 301.379 181.097 L 300.333 184.26 L 299.313 181.099 L 298.318 181.099 L 299.922 185.696 L 300.693 185.696 L 301.74 182.677 L 302.78 185.696 L 303.56 185.696 L 305.164 181.099 L 304.198 181.099 L 303.183 184.26 Z M 306.842 183.718 L 308.538 183.718 L 308.538 182.881 L 306.842 182.881 L 306.842 181.939 L 309.306 181.939 L 309.306 181.102 L 305.92 181.102 L 305.92 185.694 L 309.389 185.694 L 309.389 184.855 L 306.842 184.855 L 306.842 183.718 Z M 310.506 185.69 L 311.427 185.69 L 311.427 181.097 L 310.506 181.097 L 310.506 185.69 Z M 295.178 184.736 L 294.763 185.694 L 293.808 185.694 L 295.846 181.097 L 296.668 181.097 L 298.687 185.694 L 297.708 185.694 L 297.296 184.736 L 295.178 184.736 Z M 295.525 183.908 L 296.929 183.908 L 296.221 182.262 L 295.525 183.908 Z"
        style="fill: rgb(255, 255, 255);" transform="matrix(1, 0, 0, 1, 0, -1.7763568394002505e-15)" />
    <path class="cls-1"
        d="M 297.765 175.244 C 294.534 175.244 291.915 172.625 291.915 169.393 L 292.742 169.393 C 292.66 173.263 296.795 175.772 300.188 173.909 C 301.762 173.044 302.756 171.405 302.795 169.61 C 302.795 169.54 302.795 169.468 302.795 169.393 L 303.623 169.393 C 303.623 172.625 301.004 175.244 297.771 175.244 L 297.765 175.244 Z"
        style="fill: rgb(255, 255, 255);" transform="matrix(1, 0, 0, 1, 0, -1.7763568394002505e-15)" />
    <path class="cls-1"
        d="M 327.185 173.048 C 326.617 172.727 326.157 172.243 325.864 171.659 C 325.548 171.011 325.391 170.298 325.406 169.577 C 325.389 168.822 325.556 168.073 325.893 167.397 C 326.208 166.787 326.697 166.285 327.299 165.955 C 327.965 165.603 328.711 165.427 329.465 165.447 C 330.18 165.427 330.888 165.596 331.518 165.938 C 332.079 166.26 332.532 166.742 332.818 167.323 C 333.129 167.966 333.285 168.675 333.269 169.391 C 333.286 170.155 333.117 170.91 332.776 171.595 C 332.466 172.203 331.982 172.704 331.386 173.038 C 330.727 173.39 329.99 173.564 329.245 173.545 C 328.526 173.564 327.816 173.393 327.185 173.048 Z M 330.712 172.088 C 331.096 171.829 331.394 171.461 331.568 171.031 C 331.763 170.543 331.859 170.021 331.85 169.495 C 331.86 168.977 331.777 168.46 331.601 167.972 C 331.448 167.546 331.169 167.177 330.803 166.912 C 330.385 166.634 329.888 166.497 329.388 166.518 C 328.391 166.479 327.48 167.074 327.116 168.002 C 326.922 168.473 326.826 168.979 326.835 169.488 C 326.826 170.006 326.916 170.522 327.098 171.005 C 327.267 171.434 327.557 171.806 327.931 172.072 C 328.343 172.342 328.828 172.48 329.321 172.464 C 329.811 172.482 330.296 172.351 330.712 172.088 Z"
        style="fill: rgb(255, 255, 255);" transform="matrix(1, 0, 0, 1, 0, -1.7763568394002505e-15)" />
    <path class="cls-1"
        d="M 336.034 166.693 L 333.592 166.693 L 333.711 165.555 L 339.837 165.555 L 339.711 166.693 L 337.395 166.693 L 337.395 173.436 L 336.034 173.436 L 336.034 166.693 Z"
        style="fill: rgb(255, 255, 255);" transform="matrix(1, 0, 0, 1, 0, -1.7763568394002505e-15)" />
    <path class="cls-1"
        d="M 347.168 173.436 L 345.634 173.436 L 343.29 169.97 L 342.357 169.97 L 342.357 173.436 L 340.999 173.436 L 340.999 165.555 L 342.357 165.555 L 342.357 168.805 L 343.07 168.805 L 344.704 166.455 C 344.892 166.156 345.138 165.896 345.424 165.689 C 345.698 165.521 346.017 165.436 346.339 165.447 C 346.617 165.443 346.897 165.495 347.156 165.598 L 346.87 166.682 C 346.733 166.623 346.584 166.592 346.436 166.59 C 346.289 166.586 346.148 166.627 346.026 166.711 C 345.895 166.813 345.78 166.936 345.687 167.074 L 344.237 169.142 L 347.168 173.436 Z"
        style="fill: rgb(255, 255, 255);" transform="matrix(1, 0, 0, 1, 0, -1.7763568394002505e-15)" />
    <path class="cls-1"
        d="M 348.209 165.555 L 350.331 165.555 C 351.328 165.555 352.092 165.759 352.621 166.167 C 353.157 166.59 353.453 167.247 353.416 167.928 C 353.424 168.409 353.301 168.883 353.056 169.297 C 352.818 169.687 352.474 169.999 352.062 170.194 C 351.604 170.411 351.104 170.519 350.599 170.51 C 350.251 170.505 349.906 170.469 349.565 170.398 L 349.565 173.433 L 348.204 173.433 L 348.209 165.555 Z M 351.619 169.075 C 351.92 168.785 352.079 168.378 352.053 167.961 C 352.053 167.475 351.906 167.123 351.619 166.912 C 351.229 166.67 350.776 166.559 350.319 166.59 L 349.589 166.59 L 349.589 169.387 C 349.847 169.433 350.11 169.46 350.371 169.469 C 350.822 169.496 351.266 169.355 351.619 169.075 Z"
        style="fill: rgb(255, 255, 255);" transform="matrix(1, 0, 0, 1, 0, -1.7763568394002505e-15)" />
    <path class="cls-1"
        d="M 356.034 173.048 C 355.465 172.728 355.005 172.245 354.713 171.659 C 354.396 171.011 354.239 170.298 354.255 169.577 C 354.237 168.822 354.405 168.073 354.741 167.397 C 355.053 166.787 355.542 166.285 356.144 165.955 C 356.81 165.603 357.557 165.427 358.312 165.447 C 359.027 165.428 359.733 165.597 360.362 165.938 C 360.922 166.261 361.375 166.742 361.661 167.323 C 361.974 167.966 362.129 168.675 362.115 169.391 C 362.131 170.155 361.962 170.91 361.622 171.595 C 361.308 172.204 360.82 172.705 360.217 173.036 C 359.56 173.387 358.822 173.561 358.076 173.542 C 357.364 173.561 356.66 173.39 356.034 173.048 Z M 359.557 172.088 C 359.946 171.829 360.248 171.46 360.425 171.027 C 360.618 170.538 360.711 170.015 360.697 169.488 C 360.706 168.972 360.621 168.458 360.446 167.972 C 360.292 167.546 360.013 167.177 359.647 166.912 C 358.782 166.382 357.693 166.382 356.829 166.912 C 356.442 167.182 356.141 167.559 355.962 167.995 C 355.765 168.468 355.666 168.977 355.674 169.488 C 355.668 170.006 355.761 170.522 355.947 171.005 C 356.113 171.435 356.402 171.807 356.779 172.072 C 357.19 172.343 357.674 172.481 358.166 172.464 C 358.657 172.482 359.141 172.351 359.557 172.088 Z"
        style="fill: rgb(255, 255, 255);" transform="matrix(1, 0, 0, 1, 0, -1.7763568394002505e-15)" />
    <path class="cls-1"
        d="M 369.051 173.436 L 369.051 169.103 C 369.051 168.558 369.07 167.934 369.11 167.231 L 365.155 173.436 L 363.639 173.436 L 363.639 165.555 L 364.901 165.555 L 364.901 170.057 C 364.901 170.546 364.885 171.081 364.851 171.661 L 368.751 165.555 L 370.315 165.555 L 370.315 173.436 L 369.051 173.436 Z M 365.981 164.87 C 365.716 164.736 365.491 164.533 365.33 164.284 C 365.181 164.05 365.083 163.784 365.045 163.509 L 366.023 163.509 C 366.129 164.091 366.47 164.377 367.047 164.377 C 367.623 164.377 367.966 164.086 368.076 163.509 L 369.059 163.509 C 369.022 163.787 368.922 164.053 368.769 164.288 C 368.609 164.537 368.384 164.74 368.12 164.874 C 367.442 165.179 366.667 165.179 365.989 164.874 L 365.981 164.87 Z"
        style="fill: rgb(255, 255, 255);" transform="matrix(1, 0, 0, 1, 0, -1.7763568394002505e-15)" />
    <path class="cls-1"
        d="M 373.91 166.693 L 371.476 166.693 L 371.595 165.555 L 377.728 165.555 L 377.603 166.693 L 375.27 166.693 L 375.27 173.436 L 373.91 173.436 L 373.91 166.693 Z"
        style="fill: rgb(255, 255, 255);" transform="matrix(1, 0, 0, 1, 0, -1.7763568394002505e-15)" />
    <path class="cls-1"
        d="M 378.872 165.555 L 383.515 165.555 L 383.395 166.67 L 380.233 166.67 L 380.233 168.838 L 383.204 168.838 L 383.204 169.887 L 380.233 169.887 L 380.233 172.306 L 383.554 172.306 L 383.438 173.438 L 378.872 173.438 L 378.872 165.555 Z"
        style="fill: rgb(255, 255, 255);" transform="matrix(1, 0, 0, 1, 0, -1.7763568394002505e-15)" />
    <path class="cls-1"
        d="M 393.04 169.542 C 393.316 169.709 393.545 169.943 393.704 170.223 C 393.871 170.524 393.955 170.866 393.946 171.209 C 393.955 171.62 393.84 172.026 393.618 172.372 C 393.38 172.722 393.045 172.995 392.654 173.155 C 392.174 173.353 391.658 173.448 391.139 173.436 L 388.565 173.436 L 388.565 165.555 L 391.025 165.555 C 391.86 165.555 392.484 165.717 392.903 166.04 C 393.315 166.355 393.55 166.851 393.528 167.369 C 393.543 167.796 393.399 168.212 393.127 168.541 C 392.851 168.86 392.487 169.091 392.081 169.203 C 392.42 169.249 392.747 169.366 393.04 169.542 Z M 389.896 168.777 L 390.746 168.777 C 391.005 168.784 391.261 168.727 391.495 168.609 C 391.699 168.507 391.872 168.35 391.991 168.153 C 392.108 167.965 392.168 167.747 392.165 167.526 C 392.183 167.24 392.051 166.966 391.816 166.801 C 391.509 166.624 391.155 166.541 390.8 166.563 L 389.896 166.563 L 389.896 168.777 Z M 392.177 172.088 C 392.704 171.588 392.725 170.753 392.224 170.225 C 392.195 170.194 392.164 170.166 392.133 170.139 C 391.739 169.886 391.274 169.766 390.806 169.797 L 389.896 169.797 L 389.896 172.439 L 390.919 172.439 C 391.48 172.434 391.898 172.318 392.177 172.088 Z"
        style="fill: rgb(255, 255, 255);" transform="matrix(1, 0, 0, 1, 0, -1.7763568394002505e-15)" />
</svg>