<?xml version="1.0" encoding="utf-8"?>
<svg viewBox="215.98 69.847 179.956 53.019" width="179.956" height="53.019"
    xmlns="http://www.w3.org/2000/svg">
    <path
        d="M 215.98 77.421 C 215.98 73.238 219.373 69.847 223.557 69.847 L 388.359 69.847 C 392.543 69.847 395.936 73.238 395.936 77.421 L 395.936 115.292 C 395.936 119.475 392.543 122.866 388.359 122.866 L 223.557 122.866 C 219.373 122.866 215.98 119.475 215.98 115.292 L 215.98 77.421 Z"
        fill="black" style="" transform="matrix(1, 0, 0, 1, 0, -1.7763568394002505e-15)" />
    <path
        d="M 228.052 113.813 C 230.956 116.675 235.628 116.675 244.972 116.675 L 246.624 116.675 C 255.968 116.675 260.641 116.675 263.544 113.813 C 266.446 110.951 266.446 106.345 266.446 97.131 L 266.446 95.502 C 266.446 86.288 266.446 81.68 263.544 78.819 C 260.641 75.957 255.968 75.957 246.624 75.957 L 244.972 75.957 C 235.628 75.957 230.956 75.957 228.052 78.819 C 225.15 81.68 225.15 86.288 225.15 95.502 L 225.15 97.131 C 225.15 106.345 225.15 110.951 228.052 113.813 Z"
        fill="#0077FF" style="" transform="matrix(1, 0, 0, 1, 0, -1.7763568394002505e-15)" />
    <path fill-rule="evenodd" clip-rule="evenodd"
        d="M 257.032 103.021 L 254.241 102.333 C 253.906 102.239 253.669 101.941 253.656 101.594 L 253.308 91.467 C 253.208 90.128 252.198 89.061 251.143 88.747 C 251.084 88.73 251.021 88.753 250.986 88.804 C 250.951 88.855 250.965 88.926 251.014 88.963 C 251.275 89.162 251.992 89.811 251.992 90.929 L 251.989 104.169 C 251.989 105.448 250.763 106.385 249.5 106.075 L 246.667 105.376 C 246.353 105.268 246.134 104.98 246.123 104.647 L 245.775 94.52 C 245.674 93.179 244.665 92.114 243.611 91.799 C 243.552 91.781 243.487 91.806 243.453 91.856 C 243.417 91.907 243.431 91.978 243.481 92.015 C 243.742 92.214 244.458 92.863 244.458 93.981 L 244.456 105.018 L 244.457 105.018 L 244.457 107.223 C 244.457 108.502 243.232 109.438 241.968 109.127 L 233.965 107.156 C 232.853 106.882 232.072 105.9 232.072 104.775 L 232.072 91.515 C 232.072 90.237 233.298 89.298 234.562 89.61 L 239.605 90.852 L 239.605 88.461 C 239.605 87.183 240.829 86.246 242.093 86.556 L 247.135 87.799 L 247.135 85.408 C 247.135 84.129 248.361 83.192 249.624 83.504 L 257.628 85.475 C 258.741 85.748 259.521 86.73 259.521 87.856 L 259.521 101.116 C 259.521 102.394 258.296 103.333 257.032 103.021 Z"
        fill="white" style="" transform="matrix(1, 0, 0, 1, 0, -1.7763568394002505e-15)" />
    <path
        d="M 290.634 113.461 L 287.478 113.461 L 282.47 106.568 L 279.835 106.568 L 279.835 113.461 L 277.148 113.461 L 277.148 95.331 L 283.618 95.331 C 284.87 95.331 285.99 95.571 286.982 96.051 C 287.973 96.532 288.738 97.2 289.277 98.057 C 289.833 98.897 290.112 99.865 290.112 100.962 C 290.112 102.334 289.685 103.508 288.834 104.486 C 287.982 105.446 286.843 106.08 285.417 106.389 L 290.634 113.461 Z M 279.835 97.774 L 279.835 104.152 L 283.618 104.152 C 284.73 104.152 285.626 103.86 286.304 103.278 C 286.999 102.678 287.347 101.905 287.347 100.962 C 287.347 100.02 286.999 99.257 286.304 98.674 C 285.626 98.074 284.73 97.774 283.618 97.774 L 279.835 97.774 Z"
        fill="white" style="" transform="matrix(1, 0, 0, 1, 0, -1.7763568394002505e-15)" />
    <path
        d="M 297.762 113.719 C 296.805 113.719 295.944 113.486 295.179 113.024 C 294.414 112.544 293.814 111.893 293.38 111.069 C 292.945 110.229 292.728 109.286 292.728 108.241 L 292.728 100.165 L 295.284 100.165 L 295.284 108.035 C 295.284 109.046 295.571 109.869 296.144 110.504 C 296.719 111.138 297.457 111.456 298.362 111.456 C 299.3 111.456 300.083 111.129 300.709 110.478 C 301.335 109.826 301.648 109.012 301.648 108.035 L 301.648 100.165 L 304.204 100.165 L 304.204 113.461 L 302.378 113.461 L 301.779 111.456 C 301.344 112.175 300.77 112.733 300.057 113.127 C 299.361 113.521 298.596 113.719 297.762 113.719 Z"
        fill="white" style="" transform="matrix(1, 0, 0, 1, 0, -1.7763568394002505e-15)" />
    <path
        d="M 313.733 113.719 C 312.046 113.719 310.577 113.289 309.325 112.433 C 308.09 111.558 307.246 110.375 306.795 108.884 L 309.377 108.472 C 309.881 109.433 310.481 110.144 311.177 110.606 C 311.873 111.053 312.724 111.276 313.733 111.276 C 314.759 111.276 315.593 111.053 316.237 110.606 C 316.88 110.144 317.202 109.518 317.202 108.729 C 317.202 108.146 317.019 107.658 316.654 107.263 C 316.306 106.869 315.863 106.552 315.324 106.312 C 314.784 106.072 314.08 105.806 313.211 105.515 C 312.046 105.138 311.089 104.76 310.342 104.383 C 309.595 104.005 308.96 103.474 308.438 102.788 C 307.934 102.086 307.681 101.194 307.681 100.114 C 307.681 99.102 307.934 98.22 308.438 97.465 C 308.96 96.694 309.672 96.102 310.577 95.691 C 311.481 95.28 312.489 95.074 313.602 95.074 C 315.15 95.074 316.48 95.476 317.593 96.282 C 318.705 97.071 319.497 98.159 319.966 99.548 L 317.436 99.96 C 317.089 99.171 316.593 98.571 315.95 98.159 C 315.306 97.732 314.55 97.517 313.681 97.517 C 312.742 97.517 311.967 97.74 311.359 98.185 C 310.751 98.614 310.446 99.205 310.446 99.96 C 310.446 100.525 310.621 101.005 310.968 101.4 C 311.333 101.794 311.777 102.112 312.298 102.352 C 312.837 102.592 313.55 102.865 314.437 103.175 C 315.567 103.552 316.506 103.938 317.254 104.332 C 318.019 104.708 318.662 105.248 319.184 105.952 C 319.706 106.655 319.966 107.538 319.966 108.601 C 319.966 109.628 319.688 110.529 319.131 111.301 C 318.592 112.073 317.844 112.674 316.889 113.101 C 315.95 113.513 314.897 113.719 313.733 113.719 Z"
        fill="white" style="" transform="matrix(1, 0, 0, 1, 0, -1.7763568394002505e-15)" />
    <path
        d="M 330.763 111.249 L 330.529 113.461 L 328.155 113.461 C 326.746 113.461 325.678 113.119 324.947 112.433 C 324.217 111.746 323.852 110.761 323.852 109.476 L 323.852 102.403 L 321.53 102.403 L 321.53 100.165 L 323.852 100.165 L 324.556 96.307 L 326.407 96.307 L 326.407 100.165 L 330.529 100.165 L 330.529 102.403 L 326.407 102.403 L 326.407 109.476 C 326.407 110.658 326.99 111.249 328.155 111.249 L 330.763 111.249 Z"
        fill="white" style="" transform="matrix(1, 0, 0, 1, 0, -1.7763568394002505e-15)" />
    <path
        d="M 339.288 113.719 C 337.913 113.719 336.687 113.426 335.609 112.844 C 334.531 112.261 333.688 111.446 333.079 110.401 C 332.471 109.355 332.166 108.164 332.166 106.826 C 332.166 105.488 332.471 104.297 333.079 103.252 C 333.688 102.205 334.531 101.392 335.609 100.808 C 336.687 100.208 337.913 99.908 339.288 99.908 C 340.661 99.908 341.886 100.208 342.964 100.808 C 344.043 101.392 344.885 102.205 345.495 103.252 C 346.103 104.297 346.408 105.488 346.408 106.826 C 346.408 108.164 346.103 109.355 345.495 110.401 C 344.885 111.446 344.043 112.261 342.964 112.844 C 341.886 113.426 340.661 113.719 339.288 113.719 Z M 339.288 111.404 C 340.609 111.404 341.677 110.983 342.496 110.144 C 343.33 109.304 343.748 108.198 343.748 106.826 C 343.748 105.455 343.33 104.348 342.496 103.508 C 341.677 102.652 340.609 102.222 339.288 102.222 C 337.965 102.222 336.896 102.652 336.08 103.508 C 335.261 104.348 334.852 105.455 334.852 106.826 C 334.852 108.181 335.261 109.286 336.08 110.144 C 336.896 110.983 337.965 111.404 339.288 111.404 Z"
        fill="white" style="" transform="matrix(1, 0, 0, 1, 0, -1.7763568394002505e-15)" />
    <path
        d="M 349.148 113.461 L 349.148 100.165 L 351 100.165 L 351.549 102.068 C 351.948 101.4 352.444 100.92 353.035 100.628 C 353.626 100.32 354.331 100.165 355.148 100.165 L 355.773 100.165 L 355.982 102.583 L 354.521 102.583 C 353.583 102.583 352.878 102.848 352.409 103.381 C 351.94 103.912 351.704 104.633 351.704 105.54 L 351.704 113.461 L 349.148 113.461 Z"
        fill="white" style="" transform="matrix(1, 0, 0, 1, 0, -1.7763568394002505e-15)" />
    <path
        d="M 370.595 106.723 C 370.595 107.066 370.587 107.332 370.569 107.521 L 359.432 107.521 C 359.571 108.703 360.041 109.646 360.84 110.349 C 361.64 111.053 362.658 111.404 363.892 111.404 C 364.744 111.404 365.5 111.241 366.161 110.915 C 366.839 110.573 367.352 110.127 367.7 109.579 L 370.1 109.964 C 369.578 111.164 368.735 112.089 367.569 112.741 C 366.422 113.393 365.144 113.719 363.736 113.719 C 362.397 113.719 361.197 113.426 360.137 112.844 C 359.076 112.244 358.25 111.421 357.659 110.375 C 357.067 109.329 356.772 108.146 356.772 106.826 C 356.772 105.488 357.067 104.297 357.659 103.252 C 358.25 102.205 359.067 101.392 360.11 100.808 C 361.153 100.208 362.344 99.908 363.684 99.908 C 365.005 99.908 366.187 100.208 367.23 100.808 C 368.292 101.392 369.117 102.205 369.709 103.252 C 370.3 104.28 370.595 105.437 370.595 106.723 Z M 363.684 102.146 C 362.658 102.146 361.771 102.445 361.023 103.045 C 360.292 103.645 359.805 104.452 359.562 105.463 L 367.805 105.463 C 367.578 104.469 367.091 103.672 366.344 103.072 C 365.613 102.455 364.727 102.146 363.684 102.146 Z"
        fill="white" style="" transform="matrix(1, 0, 0, 1, 0, -1.7763568394002505e-15)" />
    <path
        d="M 280.95 88.378 C 280.036 88.378 279.214 88.165 278.484 87.74 C 277.755 87.307 277.182 86.707 276.768 85.94 C 276.361 85.174 276.158 84.311 276.158 83.35 C 276.158 82.39 276.361 81.532 276.768 80.775 C 277.182 80.009 277.751 79.414 278.471 78.989 C 279.2 78.555 280.022 78.338 280.935 78.338 C 281.924 78.338 282.801 78.587 283.567 79.086 C 284.342 79.575 284.896 80.24 285.228 81.079 L 283.815 81.301 C 283.558 80.784 283.175 80.382 282.666 80.096 C 282.168 79.801 281.605 79.653 280.977 79.653 C 280.331 79.653 279.754 79.81 279.246 80.124 C 278.747 80.437 278.355 80.877 278.069 81.44 C 277.793 81.993 277.654 82.631 277.654 83.35 C 277.654 84.079 277.793 84.726 278.069 85.29 C 278.355 85.843 278.752 86.277 279.26 86.591 C 279.768 86.904 280.35 87.061 281.005 87.061 C 281.651 87.061 282.223 86.914 282.722 86.618 C 283.23 86.314 283.618 85.89 283.885 85.345 L 285.298 85.566 C 284.947 86.425 284.379 87.108 283.594 87.615 C 282.81 88.124 281.928 88.378 280.95 88.378 Z"
        fill="white" style="" transform="matrix(1, 0, 0, 1, 0, -1.7763568394002505e-15)" />
    <path
        d="M 292.533 88.239 L 290.747 88.239 L 288.102 85.275 L 287.672 85.275 L 287.672 88.239 L 286.315 88.239 L 286.315 81.079 L 287.672 81.079 L 287.672 83.973 L 288.088 83.973 L 290.622 81.079 L 292.256 81.079 L 289.182 84.541 L 292.533 88.239 Z"
        fill="white" style="" transform="matrix(1, 0, 0, 1, 0, -1.7763568394002505e-15)" />
    <path
        d="M 295.761 80.941 C 296.646 80.941 297.344 81.232 297.852 81.814 C 298.369 82.386 298.627 83.189 298.627 84.223 L 298.627 88.239 L 297.658 88.239 L 297.339 87.117 C 297.109 87.477 296.799 87.777 296.411 88.017 C 296.024 88.257 295.557 88.378 295.013 88.378 C 294.533 88.378 294.104 88.281 293.725 88.086 C 293.347 87.893 293.051 87.625 292.838 87.283 C 292.626 86.933 292.521 86.54 292.521 86.106 C 292.521 85.432 292.788 84.892 293.323 84.486 C 293.859 84.079 294.634 83.877 295.65 83.877 L 297.27 83.877 C 297.233 83.313 297.076 82.879 296.799 82.575 C 296.522 82.261 296.153 82.104 295.692 82.104 C 295.34 82.104 295.032 82.188 294.764 82.354 C 294.496 82.52 294.293 82.737 294.155 83.005 L 292.894 82.797 C 293.079 82.224 293.434 81.772 293.96 81.44 C 294.487 81.107 295.087 80.941 295.761 80.941 Z M 295.304 87.228 C 295.885 87.228 296.356 87.039 296.716 86.66 C 297.085 86.273 297.27 85.742 297.27 85.068 L 297.27 84.984 L 295.692 84.984 C 294.492 84.984 293.891 85.345 293.891 86.065 C 293.891 86.415 294.02 86.697 294.279 86.91 C 294.538 87.121 294.879 87.228 295.304 87.228 Z"
        fill="white" style="" transform="matrix(1, 0, 0, 1, 0, -1.7763568394002505e-15)" />
    <path
        d="M 303.945 85.635 C 303.723 85.737 303.46 85.815 303.155 85.87 C 302.851 85.926 302.551 85.954 302.256 85.954 C 301.397 85.954 300.737 85.714 300.275 85.234 C 299.814 84.754 299.582 84.075 299.582 83.198 L 299.582 81.079 L 300.939 81.079 L 300.939 83.198 C 300.939 84.223 301.433 84.736 302.422 84.736 C 303.022 84.736 303.529 84.63 303.945 84.417 L 303.945 81.079 L 305.302 81.079 L 305.302 88.239 L 303.945 88.239 L 303.945 85.635 Z"
        fill="white" style="" transform="matrix(1, 0, 0, 1, 0, -1.7763568394002505e-15)" />
    <path
        d="M 309.717 80.941 C 310.603 80.941 311.3 81.232 311.807 81.814 C 312.325 82.386 312.584 83.189 312.584 84.223 L 312.584 88.239 L 311.614 88.239 L 311.296 87.117 C 311.065 87.477 310.755 87.777 310.368 88.017 C 309.98 88.257 309.514 88.378 308.969 88.378 C 308.489 88.378 308.059 88.281 307.681 88.086 C 307.302 87.893 307.007 87.625 306.795 87.283 C 306.582 86.933 306.476 86.54 306.476 86.106 C 306.476 85.432 306.744 84.892 307.28 84.486 C 307.815 84.079 308.59 83.877 309.606 83.877 L 311.227 83.877 C 311.189 83.313 311.032 82.879 310.755 82.575 C 310.479 82.261 310.109 82.104 309.648 82.104 C 309.297 82.104 308.987 82.188 308.72 82.354 C 308.452 82.52 308.249 82.737 308.11 83.005 L 306.85 82.797 C 307.035 82.224 307.39 81.772 307.917 81.44 C 308.442 81.107 309.042 80.941 309.717 80.941 Z M 309.259 87.228 C 309.841 87.228 310.312 87.039 310.672 86.66 C 311.041 86.273 311.227 85.742 311.227 85.068 L 311.227 84.984 L 309.648 84.984 C 308.448 84.984 307.847 85.345 307.847 86.065 C 307.847 86.415 307.977 86.697 308.236 86.91 C 308.493 87.121 308.836 87.228 309.259 87.228 Z"
        fill="white" style="" transform="matrix(1, 0, 0, 1, 0, -1.7763568394002505e-15)" />
    <path
        d="M 316.1 88.239 L 314.092 88.239 L 314.092 81.079 L 315.409 81.079 L 315.409 86.716 L 315.616 86.716 L 318.51 81.079 L 320.518 81.079 L 320.518 88.239 L 319.202 88.239 L 319.202 82.617 L 318.995 82.617 L 316.1 88.239 Z M 317.319 80.152 C 316.719 80.152 316.216 79.994 315.81 79.681 C 315.413 79.358 315.177 78.878 315.104 78.241 L 316.211 78.241 C 316.257 78.536 316.373 78.763 316.558 78.92 C 316.751 79.067 317.005 79.141 317.319 79.141 C 317.634 79.141 317.882 79.067 318.067 78.92 C 318.261 78.763 318.376 78.536 318.413 78.241 L 319.535 78.241 C 319.452 78.878 319.207 79.358 318.801 79.681 C 318.404 79.994 317.91 80.152 317.319 80.152 Z"
        fill="white" style="" transform="matrix(1, 0, 0, 1, 0, -1.7763568394002505e-15)" />
    <path
        d="M 325.235 88.239 L 323.878 88.239 L 323.878 82.326 L 321.4 82.326 L 321.4 81.079 L 327.714 81.079 L 327.714 82.326 L 325.235 82.326 L 325.235 88.239 Z"
        fill="white" style="" transform="matrix(1, 0, 0, 1, 0, -1.7763568394002505e-15)" />
    <path
        d="M 335.27 84.61 C 335.27 84.796 335.266 84.938 335.257 85.04 L 329.344 85.04 C 329.417 85.677 329.667 86.185 330.092 86.563 C 330.517 86.942 331.056 87.131 331.712 87.131 C 332.164 87.131 332.565 87.043 332.917 86.868 C 333.276 86.683 333.548 86.443 333.734 86.147 L 335.007 86.355 C 334.73 87.002 334.283 87.5 333.664 87.851 C 333.055 88.202 332.377 88.378 331.629 88.378 C 330.918 88.378 330.28 88.221 329.718 87.907 C 329.155 87.583 328.715 87.14 328.402 86.577 C 328.088 86.014 327.931 85.377 327.931 84.666 C 327.931 83.946 328.088 83.304 328.402 82.741 C 328.715 82.178 329.149 81.739 329.704 81.426 C 330.258 81.103 330.89 80.941 331.601 80.941 C 332.302 80.941 332.93 81.103 333.484 81.426 C 334.048 81.739 334.486 82.178 334.799 82.741 C 335.113 83.295 335.27 83.918 335.27 84.61 Z M 331.601 82.146 C 331.056 82.146 330.586 82.307 330.189 82.631 C 329.8 82.954 329.543 83.388 329.413 83.932 L 333.789 83.932 C 333.669 83.397 333.41 82.967 333.014 82.644 C 332.625 82.312 332.155 82.146 331.601 82.146 Z"
        fill="white" style="" transform="matrix(1, 0, 0, 1, 0, -1.7763568394002505e-15)" />
    <path
        d="M 341.363 88.239 L 339.355 88.239 L 339.355 81.079 L 340.671 81.079 L 340.671 86.716 L 340.879 86.716 L 343.773 81.079 L 345.78 81.079 L 345.78 88.239 L 344.465 88.239 L 344.465 82.617 L 344.257 82.617 L 341.363 88.239 Z"
        fill="white" style="" transform="matrix(1, 0, 0, 1, 0, -1.7763568394002505e-15)" />
    <path
        d="M 351.273 84.583 C 351.652 84.694 351.966 84.896 352.216 85.192 C 352.464 85.478 352.59 85.834 352.59 86.259 C 352.59 86.656 352.474 87.015 352.243 87.338 C 352.012 87.652 351.68 87.907 351.246 88.1 C 350.821 88.285 350.328 88.378 349.765 88.378 C 349.008 88.378 348.357 88.202 347.812 87.851 C 347.267 87.491 346.907 87.011 346.732 86.411 L 347.992 86.204 C 348.297 86.868 348.882 87.2 349.75 87.2 C 350.23 87.2 350.595 87.112 350.845 86.937 C 351.103 86.753 351.233 86.499 351.233 86.175 C 351.233 85.89 351.112 85.658 350.872 85.483 C 350.642 85.308 350.268 85.22 349.75 85.22 L 348.809 85.22 L 348.809 84.03 L 349.75 84.03 C 350.194 84.03 350.531 83.946 350.761 83.78 C 351.001 83.614 351.122 83.392 351.122 83.115 C 351.122 82.819 350.992 82.58 350.734 82.395 C 350.485 82.21 350.175 82.118 349.806 82.118 C 349.446 82.118 349.123 82.206 348.837 82.381 C 348.55 82.556 348.333 82.797 348.186 83.101 L 346.925 82.879 C 347.138 82.261 347.503 81.785 348.02 81.453 C 348.546 81.112 349.155 80.941 349.847 80.941 C 350.346 80.941 350.794 81.028 351.191 81.205 C 351.597 81.38 351.911 81.624 352.132 81.938 C 352.364 82.252 352.479 82.602 352.479 82.99 C 352.479 83.388 352.368 83.725 352.147 84.001 C 351.924 84.278 351.634 84.473 351.273 84.583 Z"
        fill="white" style="" transform="matrix(1, 0, 0, 1, 0, -1.7763568394002505e-15)" />
</svg>